<svg xmlns="http://www.w3.org/2000/svg" xmlns:xlink="http://www.w3.org/1999/xlink" xmlns:lucid="lucid" width="1120.14" height="946.92"><g transform="translate(-689.2029549252948 -5893.571253537144)" lucid:page-tab-id="0_0"><path d="M500 3500h1500v3500H500z" fill="#fff"/><path d="M730.13 6025.02l.28.02.3.07.26.12.24.15.22.2.2.2.14.25.1.27.08.27.02.28v10.03m0 10.03v20.06m0 10.03v20.05m0 10.02v20.06m0 10.02v20.06m0 10.03v20.06m0 10.02v20.05m0 10.03v20.05m0 10.03v20.05m0 10.03v20.06m0 10.02v20.06m0 10.02v20.06m0 10.03v20.06m0 10.03v20.04m0 10.03v20.05m0 10.03v20.05m0 10.03v20.06m0 10v20.07m0 10.02v20.05m0 10.03v20.05m0 10.03v20.05m0 10.04v20.05m0 10.02v20.06m0 10.02v20.06m0 10.02v20.06m0 10.02v20.06m0 10.03V6819m0 10.03v10.03M730.14 6025.02h-3.5M731.96 6839.04v.52M1040 6000l.05 9.9m.04 9.9l.07 19.77m.04 9.9l.1 19.77m.04 9.9l.1 19.77m.03 9.9l.1 19.78m.03 9.9l.1 19.77m.03 9.9l.08 19.77m.06 9.9l.08 19.77m.04 9.88l.1 19.78m.03 9.9l.1 19.77m.04 9.9l.1 19.77m.03 9.9l.08 19.77m.05 9.9l.08 19.77m.04 9.9l.1 19.78m.03 9.9l.1 19.77m.03 9.88l.08 19.78m.05 9.9l.1 19.77m.04 9.9l.08 19.77m.04 9.9l.1 19.77m.03 9.9l.08 19.77m.04 9.9l.1 19.77m.03 9.9l.08 19.78m.05 9.9l.08 19.77m.04 9.9l.1 19.77m.03 9.9l.1 19.77m.03 9.88l.08 19.78m.05 9.9l.07 19.77m.05 9.9l.08 19.78m.04 9.9l.05 9.9" stroke="#333" fill="none"/><path d="M1039.9 5999.5l.57.08v.44h-.94v-.63z" stroke="#333" stroke-width=".05" fill="#333"/><path d="M1043.6 6830.77v.52M1404.42 6001v10m0 9.98v19.97m0 10v19.97m0 9.98v19.98m0 10v19.96m0 10v19.97m0 10v19.97m0 10v19.97m0 9.98v19.98m0 10v19.96m0 10v19.97m0 10v19.96m0 9.98v19.98m0 9.98v19.98m0 10v19.96m0 10v19.97m0 10v19.96m0 10v19.98m0 9.98v19.98m0 10v19.96m0 10v19.97m0 9.98v19.98m0 10v19.97m0 9.98v19.98m0 10v19.96m0 10v19.97m0 9.97v19.98m0 10V6820m0 9.98v10" stroke="#333" fill="none"/><path d="M1404.42 6000.5l.48-.02v.53h-.95v-.52z" stroke="#333" stroke-width=".05" fill="#333"/><path d="M1404.42 6839.98v.5M1758.85 6001v9.9m0 9.93v19.82m0 9.9v19.84m0 9.9v19.82m0 9.92v19.82m0 9.9v19.84m0 9.9v19.84m0 9.9v19.83m0 9.92v19.8m0 9.92v19.83m0 9.9v19.84m0 9.9v19.82m0 9.9v19.84m0 9.9v19.84m0 9.9v19.83m0 9.92v19.82m0 9.9v19.84m0 9.92v19.83m0 9.9v19.83m0 9.92v19.82m0 9.9v19.84m0 9.9v19.84m0 9.9v19.83m0 9.9v19.84m0 9.9v19.84m0 9.92v19.82m0 9.92v19.82m0 9.9v19.84m0 9.9v9.92l.07.93.2.9.37.86.47.8.6.7.7.6.8.48.86.37.9.2.93.1" stroke="#333" fill="none"/><path d="M1758.83 6000.5h.49v.5h-.95v-.5z" stroke="#333" stroke-width=".05" fill="#333"/><path d="M1764.74 6839.56h.52" stroke="#333" fill="none"/><path d="M749.38 5949.04c0 10.9-8.85 19.75-19.75 19.75s-19.75-8.86-19.75-19.76c0-10.9 8.84-19.75 19.75-19.75 10.9 0 19.75 8.83 19.75 19.74z" stroke="#333" fill="#fff"/><path d="M729.63 5968.8v47.3a27.6 27.6 0 0 0 4.27 14.75l35.73 56.44m-40-63.2l-40 63.2m0-98.76h80" stroke="#333" fill="none"/><path d="M689.63 5937.3a8 8 0 0 1 8-8h64a8 8 0 0 1 8 8v164a8 8 0 0 1-8 8h-64a8 8 0 0 1-8-8z" fill="none"/><use xlink:href="#a" transform="matrix(1,0,0,1,609.6254450240395,6087.287183155776) translate(107.20987654320987 14.555555555555555)"/><path d="M1060.5 6320h302.17a.25.25 0 0 0 .25-.25.25.25 0 0 1 .25-.25h4.37M1060.5 6320h-.5" stroke="#333" fill="none"/><path d="M1382.3 6319.5l-14.26 4.64v-9.28z" stroke="#333" fill="#333"/><use xlink:href="#b" transform="matrix(1,0,0,1,1127.1537871679782,6294.666666666666) translate(0.0049999999999954525 14.222222222222223)"/><use xlink:href="#c" transform="matrix(1,0,0,1,1127.1537871679782,6294.666666666666) translate(19.758086419753084 14.222222222222223)"/><use xlink:href="#d" transform="matrix(1,0,0,1,1127.1537871679782,6294.666666666666) translate(85.7333950617284 14.222222222222223)"/><use xlink:href="#e" transform="matrix(1,0,0,1,1127.1537871679782,6294.666666666666) translate(153.19018518518521 14.222222222222223)"/><path d="M1100 5950c0 27.6-22.4 50-50 50s-50-22.4-50-50 22.4-50 50-50 50 22.4 50 50z" stroke="#3a414a" fill="#fff"/><path d="M980 5900v100m0-50h20" stroke="#3a414a" fill="none"/><use xlink:href="#f" transform="matrix(1,0,0,1,960,6000) translate(37.099999999999994 14.4)"/><use xlink:href="#g" transform="matrix(1,0,0,1,960,6000) translate(93 14.4)"/><path d="M1454.42 5950c0 27.6-22.38 50-50 50-27.6 0-50-22.4-50-50s22.4-50 50-50c27.62 0 50 22.4 50 50z" stroke="#3a414a" fill="#fff"/><path d="M1414.42 5894l-10 6 10 7.2" stroke="#3a414a" fill="none"/><use xlink:href="#h" transform="matrix(1,0,0,1,1314.4224448114433,6000) translate(55 14.4)"/><use xlink:href="#i" transform="matrix(1,0,0,1,1314.4224448114433,6000) translate(36.599999999999994 36)"/><path d="M1758.85 6000c-27.62 0-50-22.4-50-50s22.38-50 50-50c27.6 0 50 22.4 50 50s-22.4 50-50 50z" stroke="#3a414a" fill="#fff"/><path d="M1708.85 6000h100" stroke="#3a414a" fill="none"/><use xlink:href="#j" transform="matrix(1,0,0,1,1668.8448896228865,6000) translate(1.1499999999999915 14.4)"/><use xlink:href="#k" transform="matrix(1,0,0,1,1668.8448896228865,6000) translate(87.05 14.4)"/><path d="M1425.42 6480.16h296.54" stroke="#333" fill="none"/><path d="M1425.43 6480.64h-.5v-.95h.5z" stroke="#333" stroke-width=".05" fill="#333"/><path d="M1736.73 6480.16l-14.27 4.64v-9.28z" stroke="#333" fill="#333"/><use xlink:href="#l" transform="matrix(1,0,0,1,1462.275642525807,6454.826666666662) translate(0.0049999999999954525 14.222222222222223)"/><use xlink:href="#m" transform="matrix(1,0,0,1,1462.275642525807,6454.826666666662) translate(19.758086419753084 14.222222222222223)"/><use xlink:href="#n" transform="matrix(1,0,0,1,1462.275642525807,6454.826666666662) translate(83.75808641975308 14.222222222222223)"/><use xlink:href="#o" transform="matrix(1,0,0,1,1462.275642525807,6454.826666666662) translate(186.37537037037038 14.222222222222223)"/><path d="M1020 6160h40v160h-40zM1384.42 6320h40v220h-40zM1738.85 6480.66h40v44.93h-40z" stroke="#3a414a" fill="#f2f3f5"/><path d="M732.46 6160h270.65M732.47 6160h-.5" stroke="#3a414a" fill="none"/><path d="M1017.88 6160l-14.26 4.64v-9.28z" stroke="#3a414a" fill="#3a414a"/><use xlink:href="#p" transform="matrix(1,0,0,1,791.3540686559465,6112.799934186201) translate(0 14.4)"/><use xlink:href="#q" transform="matrix(1,0,0,1,791.3540686559465,6112.799934186201) translate(20 14.4)"/><use xlink:href="#r" transform="matrix(1,0,0,1,791.3540686559465,6112.799934186201) translate(80.85000000000001 14.4)"/><use xlink:href="#s" transform="matrix(1,0,0,1,791.3540686559465,6112.799934186201) translate(0 36)"/><use xlink:href="#t" transform="matrix(1,0,0,1,791.3540686559465,6112.799934186201) translate(82 36)"/><path d="M732.46 6220h270.66M732.47 6220h-.5" stroke="#3a414a" fill="none"/><path d="M1017.88 6220l-14.26 4.64v-9.28z" stroke="#3a414a" fill="#3a414a"/><use xlink:href="#u" transform="matrix(1,0,0,1,800.7292512703641,6194.4) translate(0.0049999999999954525 14.4)"/><use xlink:href="#v" transform="matrix(1,0,0,1,800.7292512703641,6194.4) translate(20.004999999999995 14.4)"/><use xlink:href="#w" transform="matrix(1,0,0,1,800.7292512703641,6194.4) translate(59.004999999999995 14.4)"/><use xlink:href="#x" transform="matrix(1,0,0,1,800.7292512703641,6194.4) translate(83.005 14.4)"/><use xlink:href="#y" transform="matrix(1,0,0,1,800.7292512703641,6194.4) translate(122.005 14.4)"/><path d="M732.46 6280h270.66M732.47 6280h-.5" stroke="#3a414a" fill="none"/><path d="M1017.88 6280l-14.26 4.64v-9.28z" stroke="#3a414a" fill="#3a414a"/><use xlink:href="#z" transform="matrix(1,0,0,1,818.329251270364,6254.400000000001) translate(0.005000000000002558 14.4)"/><use xlink:href="#A" transform="matrix(1,0,0,1,818.329251270364,6254.400000000001) translate(20.005000000000003 14.4)"/><use xlink:href="#B" transform="matrix(1,0,0,1,818.329251270364,6254.400000000001) translate(81.85500000000002 14.4)"/><path d="M1058.72 6540H1383.42" stroke="#3a414a" fill="none"/><path d="M1043.95 6540l14.27-4.63v9.28z" stroke="#3a414a" fill="#3a414a"/><path d="M1383.92 6540.48h-.5v-.94h.5z" stroke="#3a414a" stroke-width=".05" fill="#3a414a"/><g><use xlink:href="#C" transform="matrix(1,0,0,1,1078.3271367448615,6514.409607831545) translate(0.0049999999999954525 14.4)"/><use xlink:href="#D" transform="matrix(1,0,0,1,1078.3271367448615,6514.409607831545) translate(20.004999999999995 14.4)"/><use xlink:href="#E" transform="matrix(1,0,0,1,1078.3271367448615,6514.409607831545) translate(81.955 14.4)"/><use xlink:href="#F" transform="matrix(1,0,0,1,1078.3271367448615,6514.409607831545) translate(142.805 14.4)"/><use xlink:href="#G" transform="matrix(1,0,0,1,1078.3271367448615,6514.409607831545) translate(232.705 14.4)"/></g><path d="M1425.42 6340.67h27.5a12 12 0 0 1 12 12v5.33a12 12 0 0 1-12 12h-11.6" stroke="#3a414a" fill="none"/><path d="M1425.43 6341.14h-.5v-.95h.5z" stroke="#3a414a" stroke-width=".05" fill="#3a414a"/><path d="M1426.54 6370l14.27-4.64v9.28z" stroke="#3a414a" fill="#3a414a"/><g><use xlink:href="#H" transform="matrix(1,0,0,1,1472.922444811443,6344.533333333333) translate(0.0049999999999954525 14.4)"/><use xlink:href="#I" transform="matrix(1,0,0,1,1472.922444811443,6344.533333333333) translate(20.004999999999995 14.4)"/><use xlink:href="#J" transform="matrix(1,0,0,1,1472.922444811443,6344.533333333333) translate(73.35499999999999 14.4)"/><use xlink:href="#K" transform="matrix(1,0,0,1,1472.922444811443,6344.533333333333) translate(130.255 14.4)"/></g><path d="M1425.42 6401.08h27.5a12 12 0 0 1 12 12v4a12 12 0 0 1-12 12h-11.6" stroke="#3a414a" fill="none"/><path d="M1425.43 6401.55h-.5v-.95h.5z" stroke="#3a414a" stroke-width=".05" fill="#3a414a"/><path d="M1426.54 6429.1l14.27-4.64v9.27z" stroke="#3a414a" fill="#3a414a"/><g><use xlink:href="#L" transform="matrix(1,0,0,1,1472.9224448114433,6404.285329689947) translate(0.005000000000002558 14.4)"/><use xlink:href="#M" transform="matrix(1,0,0,1,1472.9224448114433,6404.285329689947) translate(20.005000000000003 14.4)"/><use xlink:href="#B" transform="matrix(1,0,0,1,1472.9224448114433,6404.285329689947) translate(86.805 14.4)"/></g><path d="M748.34 6559.03h293.57" stroke="#3a414a" fill="none"/><path d="M733.58 6559.03l14.26-4.64v9.26z" stroke="#3a414a" fill="#3a414a"/><path d="M1041.9 6559.03h.5" stroke="#3a414a" fill="none"/><g><use xlink:href="#N" transform="matrix(1,0,0,1,766.3611890208928,6533.427554404786) translate(0.0049999999999954525 14.4)"/><use xlink:href="#O" transform="matrix(1,0,0,1,766.3611890208928,6533.427554404786) translate(20.004999999999995 14.4)"/><use xlink:href="#E" transform="matrix(1,0,0,1,766.3611890208928,6533.427554404786) translate(113.905 14.4)"/><use xlink:href="#P" transform="matrix(1,0,0,1,766.3611890208928,6533.427554404786) translate(174.755 14.4)"/></g><defs><path fill="#3a414a" d="M197 0v-115H63V0H30v-248h33v105h134v-105h34V0h-34" id="Q"/><path fill="#3a414a" d="M233-177c-1 41-23 64-60 70L243 0h-38l-65-103H63V0H30v-248c88 3 205-21 203 71zM63-129c60-2 137 13 137-47 0-61-80-42-137-45v92" id="R"/><g id="a"><use transform="matrix(0.04938271604938272,0,0,0.04938271604938272,0,0)" xlink:href="#Q"/><use transform="matrix(0.04938271604938272,0,0,0.04938271604938272,12.790123456790125,0)" xlink:href="#R"/></g><path fill="#3a414a" d="M126-127c33 6 58 20 58 59 0 88-139 92-164 29-3-8-5-16-6-25l32-3c6 27 21 44 54 44 32 0 52-15 52-46 0-38-36-46-79-43v-28c39 1 72-4 72-42 0-27-17-43-46-43-28 0-47 15-49 41l-32-3c6-42 35-63 81-64 48-1 79 21 79 65 0 36-21 52-52 59" id="S"/><path fill="#3a414a" d="M33 0v-38h34V0H33" id="T"/><g id="b"><use transform="matrix(0.04938271604938272,0,0,0.04938271604938272,0,0)" xlink:href="#S"/><use transform="matrix(0.04938271604938272,0,0,0.04938271604938272,9.876543209876544,0)" xlink:href="#T"/></g><path fill="#3a414a" d="M30 0v-248h187v28H63v79h144v27H63v87h162V0H30" id="U"/><path fill="#3a414a" d="M59-47c-2 24 18 29 38 22v24C64 9 27 4 27-40v-127H5v-23h24l9-43h21v43h35v23H59v120" id="V"/><path fill="#3a414a" d="M143 0L79-87 56-68V0H24v-261h32v163l83-92h37l-77 82L181 0h-38" id="W"/><path fill="#3a414a" d="M24-231v-30h32v30H24zM24 0v-190h32V0H24" id="X"/><path fill="#3a414a" d="M117-194c89-4 53 116 60 194h-32v-121c0-31-8-49-39-48C34-167 62-67 57 0H25l-1-190h30c1 10-1 24 2 32 11-22 29-35 61-36" id="Y"/><path fill="#3a414a" d="M24 0v-261h32V0H24" id="Z"/><path fill="#3a414a" d="M177-190C167-65 218 103 67 71c-23-6-38-20-44-43l32-5c15 47 100 32 89-28v-30C133-14 115 1 83 1 29 1 15-40 15-95c0-56 16-97 71-98 29-1 48 16 59 35 1-10 0-23 2-32h30zM94-22c36 0 50-32 50-73 0-42-14-75-50-75-39 0-46 34-46 75s6 73 46 73zM58-265c2 34 73 36 76 0h21c0 57-92 73-111 20-3-7-5-13-6-20h20" id="aa"/><g id="c"><use transform="matrix(0.04938271604938272,0,0,0.04938271604938272,0,0)" xlink:href="#U"/><use transform="matrix(0.04938271604938272,0,0,0.04938271604938272,11.851851851851853,0)" xlink:href="#V"/><use transform="matrix(0.04938271604938272,0,0,0.04938271604938272,16.790123456790127,0)" xlink:href="#W"/><use transform="matrix(0.04938271604938272,0,0,0.04938271604938272,25.679012345679016,0)" xlink:href="#X"/><use transform="matrix(0.04938271604938272,0,0,0.04938271604938272,29.58024691358025,0)" xlink:href="#Y"/><use transform="matrix(0.04938271604938272,0,0,0.04938271604938272,39.4567901234568,0)" xlink:href="#Z"/><use transform="matrix(0.04938271604938272,0,0,0.04938271604938272,43.35802469135803,0)" xlink:href="#X"/><use transform="matrix(0.04938271604938272,0,0,0.04938271604938272,47.25925925925927,0)" xlink:href="#aa"/><use transform="matrix(0.04938271604938272,0,0,0.04938271604938272,57.135802469135804,0)" xlink:href="#X"/></g><path fill="#3a414a" d="M135-143c-3-34-86-38-87 0 15 53 115 12 119 90S17 21 10-45l28-5c4 36 97 45 98 0-10-56-113-15-118-90-4-57 82-63 122-42 12 7 21 19 24 35" id="ab"/><path fill="#3a414a" d="M100-194c63 0 86 42 84 106H49c0 40 14 67 53 68 26 1 43-12 49-29l28 8c-11 28-37 45-77 45C44 4 14-33 15-96c1-61 26-98 85-98zm52 81c6-60-76-77-97-28-3 7-6 17-6 28h103" id="ac"/><path fill="#3a414a" d="M114-163C36-179 61-72 57 0H25l-1-190h30c1 12-1 29 2 39 6-27 23-49 58-41v29" id="ad"/><path fill="#3a414a" d="M108 0H70L1-190h34L89-25l56-165h34" id="ae"/><path fill="#3a414a" d="M47-170H22l-4-78h33" id="af"/><path fill="#3a414a" d="M141-36C126-15 110 5 73 4 37 3 15-17 15-53c-1-64 63-63 125-63 3-35-9-54-41-54-24 1-41 7-42 31l-33-3c5-37 33-52 76-52 45 0 72 20 72 64v82c-1 20 7 32 28 27v20c-31 9-61-2-59-35zM48-53c0 20 12 33 32 33 41-3 63-29 60-74-43 2-92-5-92 41" id="ag"/><g id="d"><use transform="matrix(0.04938271604938272,0,0,0.04938271604938272,0,0)" xlink:href="#ab"/><use transform="matrix(0.04938271604938272,0,0,0.04938271604938272,8.88888888888889,0)" xlink:href="#ac"/><use transform="matrix(0.04938271604938272,0,0,0.04938271604938272,18.765432098765434,0)" xlink:href="#ad"/><use transform="matrix(0.04938271604938272,0,0,0.04938271604938272,24.641975308641978,0)" xlink:href="#ae"/><use transform="matrix(0.04938271604938272,0,0,0.04938271604938272,33.53086419753087,0)" xlink:href="#ac"/><use transform="matrix(0.04938271604938272,0,0,0.04938271604938272,43.40740740740741,0)" xlink:href="#ad"/><use transform="matrix(0.04938271604938272,0,0,0.04938271604938272,49.283950617283956,0)" xlink:href="#af"/><use transform="matrix(0.04938271604938272,0,0,0.04938271604938272,52.64197530864198,0)" xlink:href="#ag"/></g><path fill="#3a414a" d="M179-190L93 31C79 59 56 82 12 73V49c39 6 53-20 64-50L1-190h34L92-34l54-156h33" id="ah"/><path fill="#3a414a" d="M100-194c62-1 85 37 85 99 1 63-27 99-86 99S16-35 15-95c0-66 28-99 85-99zM99-20c44 1 53-31 53-75 0-43-8-75-51-75s-53 32-53 75 10 74 51 75" id="ai"/><g id="e"><use transform="matrix(0.04938271604938272,0,0,0.04938271604938272,0,0)" xlink:href="#ah"/><use transform="matrix(0.04938271604938272,0,0,0.04938271604938272,8.88888888888889,0)" xlink:href="#ai"/><use transform="matrix(0.04938271604938272,0,0,0.04938271604938272,18.765432098765434,0)" xlink:href="#Z"/><use transform="matrix(0.04938271604938272,0,0,0.04938271604938272,22.666666666666668,0)" xlink:href="#Z"/><use transform="matrix(0.04938271604938272,0,0,0.04938271604938272,26.567901234567902,0)" xlink:href="#ag"/></g><path fill="#3a414a" d="M205 0l-28-72H64L36 0H1l101-248h38L239 0h-34zm-38-99l-47-123c-12 45-31 82-46 123h93" id="aj"/><path fill="#3a414a" d="M85-194c31 0 48 13 60 33l-1-100h32l1 261h-30c-2-10 0-23-3-31C134-8 116 4 85 4 32 4 16-35 15-94c0-66 23-100 70-100zm9 24c-40 0-46 34-46 75 0 40 6 74 45 74 42 0 51-32 51-76 0-42-9-74-50-73" id="ak"/><path fill="#3a414a" d="M210-169c-67 3-38 105-44 169h-31v-121c0-29-5-50-35-48C34-165 62-65 56 0H25l-1-190h30c1 10-1 24 2 32 10-44 99-50 107 0 11-21 27-35 58-36 85-2 47 119 55 194h-31v-121c0-29-5-49-35-48" id="al"/><g id="f"><use transform="matrix(0.05,0,0,0.05,0,0)" xlink:href="#aj"/><use transform="matrix(0.05,0,0,0.05,12,0)" xlink:href="#ak"/><use transform="matrix(0.05,0,0,0.05,22,0)" xlink:href="#al"/><use transform="matrix(0.05,0,0,0.05,36.95,0)" xlink:href="#X"/><use transform="matrix(0.05,0,0,0.05,40.900000000000006,0)" xlink:href="#Y"/></g><path fill="#3a414a" d="M30-248c87 1 191-15 191 75 0 78-77 80-158 76V0H30v-248zm33 125c57 0 124 11 124-50 0-59-68-47-124-48v98" id="am"/><g id="g"><use transform="matrix(0.05,0,0,0.05,0,0)" xlink:href="#am"/><use transform="matrix(0.05,0,0,0.05,12,0)" xlink:href="#ag"/><use transform="matrix(0.05,0,0,0.05,22,0)" xlink:href="#Y"/><use transform="matrix(0.05,0,0,0.05,32,0)" xlink:href="#ac"/><use transform="matrix(0.05,0,0,0.05,42,0)" xlink:href="#Z"/><use transform="matrix(0.05,0,0,0.05,45.95,0)" xlink:href="#X"/></g><path fill="#3a414a" d="M160-131c35 5 61 23 61 61C221 17 115-2 30 0v-248c76 3 177-17 177 60 0 33-19 50-47 57zm-97-11c50-1 110 9 110-42 0-47-63-36-110-37v79zm0 115c55-2 124 14 124-45 0-56-70-42-124-44v89" id="an"/><path fill="#3a414a" d="M96-169c-40 0-48 33-48 73s9 75 48 75c24 0 41-14 43-38l32 2c-6 37-31 61-74 61-59 0-76-41-82-99-10-93 101-131 147-64 4 7 5 14 7 22l-32 3c-4-21-16-35-41-35" id="ao"/><g id="h"><use transform="matrix(0.05,0,0,0.05,0,0)" xlink:href="#an"/><use transform="matrix(0.05,0,0,0.05,12,0)" xlink:href="#ag"/><use transform="matrix(0.05,0,0,0.05,22,0)" xlink:href="#ao"/><use transform="matrix(0.05,0,0,0.05,31,0)" xlink:href="#W"/><use transform="matrix(0.05,0,0,0.05,40,0)" xlink:href="#ac"/><use transform="matrix(0.05,0,0,0.05,50,0)" xlink:href="#Y"/><use transform="matrix(0.05,0,0,0.05,60,0)" xlink:href="#ak"/></g><path fill="#3a414a" d="M87 75C49 33 22-17 22-94c0-76 28-126 65-167h31c-38 41-64 92-64 168S80 34 118 75H87" id="ap"/><path fill="#3a414a" d="M153-248C145-148 188 4 80 4 36 3 13-21 6-62l32-5c4 25 16 42 43 43 27 0 39-20 39-49v-147H72v-28h81" id="aq"/><path fill="#3a414a" d="M0 4l72-265h28L28 4H0" id="ar"/><path fill="#3a414a" d="M185-189c-5-48-123-54-124 2 14 75 158 14 163 119 3 78-121 87-175 55-17-10-28-26-33-46l33-7c5 56 141 63 141-1 0-78-155-14-162-118-5-82 145-84 179-34 5 7 8 16 11 25" id="as"/><path fill="#3a414a" d="M115-194c55 1 70 41 70 98S169 2 115 4C84 4 66-9 55-30l1 105H24l-1-265h31l2 30c10-21 28-34 59-34zm-8 174c40 0 45-34 45-75s-6-73-45-74c-42 0-51 32-51 76 0 43 10 73 51 73" id="at"/><path fill="#3a414a" d="M177-190C167-65 218 103 67 71c-23-6-38-20-44-43l32-5c15 47 100 32 89-28v-30C133-14 115 1 83 1 29 1 15-40 15-95c0-56 16-97 71-98 29-1 48 16 59 35 1-10 0-23 2-32h30zM94-22c36 0 50-32 50-73 0-42-14-75-50-75-39 0-46 34-46 75s6 73 46 73" id="au"/><path fill="#3a414a" d="M33-261c38 41 65 92 65 168S71 34 33 75H2C39 34 66-17 66-93S39-220 2-261h31" id="av"/><g id="i"><use transform="matrix(0.05,0,0,0.05,0,0)" xlink:href="#ap"/><use transform="matrix(0.05,0,0,0.05,5.95,0)" xlink:href="#aq"/><use transform="matrix(0.05,0,0,0.05,14.949999999999998,0)" xlink:href="#ag"/><use transform="matrix(0.05,0,0,0.05,24.95,0)" xlink:href="#ae"/><use transform="matrix(0.05,0,0,0.05,33.95,0)" xlink:href="#ag"/><use transform="matrix(0.05,0,0,0.05,43.95,0)" xlink:href="#ar"/><use transform="matrix(0.05,0,0,0.05,48.95,0)" xlink:href="#as"/><use transform="matrix(0.05,0,0,0.05,60.95,0)" xlink:href="#at"/><use transform="matrix(0.05,0,0,0.05,70.95,0)" xlink:href="#ad"/><use transform="matrix(0.05,0,0,0.05,76.9,0)" xlink:href="#X"/><use transform="matrix(0.05,0,0,0.05,80.85000000000001,0)" xlink:href="#Y"/><use transform="matrix(0.05,0,0,0.05,90.85000000000001,0)" xlink:href="#au"/><use transform="matrix(0.05,0,0,0.05,100.85000000000001,0)" xlink:href="#av"/></g><path fill="#3a414a" d="M137 0h-34L2-248h35l83 218 83-218h36" id="aw"/><path fill="#3a414a" d="M115-194c53 0 69 39 70 98 0 66-23 100-70 100C84 3 66-7 56-30L54 0H23l1-261h32v101c10-23 28-34 59-34zm-8 174c40 0 45-34 45-75 0-40-5-75-45-74-42 0-51 32-51 76 0 43 10 73 51 73" id="ax"/><path fill="#3a414a" d="M34 0v-190h32V0H34" id="ay"/><g id="j"><use transform="matrix(0.05,0,0,0.05,0,0)" xlink:href="#aw"/><use transform="matrix(0.05,0,0,0.05,11,0)" xlink:href="#ac"/><use transform="matrix(0.05,0,0,0.05,21,0)" xlink:href="#ad"/><use transform="matrix(0.05,0,0,0.05,26.950000000000003,0)" xlink:href="#X"/><use transform="matrix(0.05,0,0,0.05,30.899999999999995,0)" xlink:href="#V"/><use transform="matrix(0.05,0,0,0.05,35.9,0)" xlink:href="#ag"/><use transform="matrix(0.05,0,0,0.05,45.9,0)" xlink:href="#ax"/><use transform="matrix(0.05,0,0,0.05,55.900000000000006,0)" xlink:href="#ag"/><use transform="matrix(0.05,0,0,0.05,65.9,0)" xlink:href="#Y"/><use transform="matrix(0.05,0,0,0.05,75.9,0)" xlink:href="#ay"/></g><path fill="#3a414a" d="M240 0l2-218c-23 76-54 145-80 218h-23L58-218 59 0H30v-248h44l77 211c21-75 51-140 76-211h43V0h-30" id="az"/><path fill="#3a414a" d="M30-248c118-7 216 8 213 122C240-48 200 0 122 0H30v-248zM63-27c89 8 146-16 146-99s-60-101-146-95v194" id="aA"/><g id="k"><use transform="matrix(0.05,0,0,0.05,0,0)" xlink:href="#ap"/><use transform="matrix(0.05,0,0,0.05,5.95,0)" xlink:href="#az"/><use transform="matrix(0.05,0,0,0.05,20.900000000000002,0)" xlink:href="#ai"/><use transform="matrix(0.05,0,0,0.05,30.900000000000002,0)" xlink:href="#Y"/><use transform="matrix(0.05,0,0,0.05,40.900000000000006,0)" xlink:href="#au"/><use transform="matrix(0.05,0,0,0.05,50.900000000000006,0)" xlink:href="#ai"/><use transform="matrix(0.05,0,0,0.05,60.900000000000006,0)" xlink:href="#aA"/><use transform="matrix(0.05,0,0,0.05,73.85000000000001,0)" xlink:href="#an"/><use transform="matrix(0.05,0,0,0.05,85.85000000000001,0)" xlink:href="#av"/></g><path fill="#3a414a" d="M110-160c48 1 74 30 74 79 0 53-28 85-80 85-65 0-83-55-86-122-5-90 50-162 133-122 14 7 22 21 27 39l-31 6c-5-40-67-38-82-6-9 19-15 44-15 74 11-20 30-34 60-33zm-7 138c34 0 49-23 49-58s-16-56-50-56c-29 0-50 16-49 49 1 36 15 65 50 65" id="aB"/><g id="l"><use transform="matrix(0.04938271604938272,0,0,0.04938271604938272,0,0)" xlink:href="#aB"/><use transform="matrix(0.04938271604938272,0,0,0.04938271604938272,9.876543209876544,0)" xlink:href="#T"/></g><path fill="#3a414a" d="M127-220V0H93v-220H8v-28h204v28h-85" id="aC"/><g id="m"><use transform="matrix(0.04938271604938272,0,0,0.04938271604938272,0,0)" xlink:href="#aC"/><use transform="matrix(0.04938271604938272,0,0,0.04938271604938272,8.839506172839506,0)" xlink:href="#ag"/><use transform="matrix(0.04938271604938272,0,0,0.04938271604938272,18.71604938271605,0)" xlink:href="#W"/><use transform="matrix(0.04938271604938272,0,0,0.04938271604938272,27.60493827160494,0)" xlink:href="#ae"/><use transform="matrix(0.04938271604938272,0,0,0.04938271604938272,36.49382716049383,0)" xlink:href="#X"/><use transform="matrix(0.04938271604938272,0,0,0.04938271604938272,40.39506172839506,0)" xlink:href="#al"/><use transform="matrix(0.04938271604938272,0,0,0.04938271604938272,55.1604938271605,0)" xlink:href="#X"/></g><g id="n"><use transform="matrix(0.04938271604938272,0,0,0.04938271604938272,0,0)" xlink:href="#ae"/><use transform="matrix(0.04938271604938272,0,0,0.04938271604938272,8.88888888888889,0)" xlink:href="#ac"/><use transform="matrix(0.04938271604938272,0,0,0.04938271604938272,18.765432098765434,0)" xlink:href="#ad"/><use transform="matrix(0.04938271604938272,0,0,0.04938271604938272,24.641975308641978,0)" xlink:href="#X"/><use transform="matrix(0.04938271604938272,0,0,0.04938271604938272,28.543209876543212,0)" xlink:href="#V"/><use transform="matrix(0.04938271604938272,0,0,0.04938271604938272,33.48148148148148,0)" xlink:href="#ag"/><use transform="matrix(0.04938271604938272,0,0,0.04938271604938272,43.358024691358025,0)" xlink:href="#ax"/><use transform="matrix(0.04938271604938272,0,0,0.04938271604938272,53.23456790123457,0)" xlink:href="#ag"/><use transform="matrix(0.04938271604938272,0,0,0.04938271604938272,63.111111111111114,0)" xlink:href="#Y"/><use transform="matrix(0.04938271604938272,0,0,0.04938271604938272,72.98765432098766,0)" xlink:href="#ay"/><use transform="matrix(0.04938271604938272,0,0,0.04938271604938272,77.92592592592592,0)" xlink:href="#Y"/><use transform="matrix(0.04938271604938272,0,0,0.04938271604938272,87.80246913580247,0)" xlink:href="#ag"/></g><g id="o"><use transform="matrix(0.04938271604938272,0,0,0.04938271604938272,0,0)" xlink:href="#W"/><use transform="matrix(0.04938271604938272,0,0,0.04938271604938272,8.88888888888889,0)" xlink:href="#ag"/><use transform="matrix(0.04938271604938272,0,0,0.04938271604938272,18.765432098765434,0)" xlink:href="#ah"/><use transform="matrix(0.04938271604938272,0,0,0.04938271604938272,27.654320987654323,0)" xlink:href="#ak"/><use transform="matrix(0.04938271604938272,0,0,0.04938271604938272,37.53086419753087,0)" xlink:href="#ac"/><use transform="matrix(0.04938271604938272,0,0,0.04938271604938272,47.40740740740741,0)" xlink:href="#V"/></g><path fill="#3a414a" d="M27 0v-27h64v-190l-56 39v-29l58-41h29v221h61V0H27" id="aD"/><g id="p"><use transform="matrix(0.05,0,0,0.05,0,0)" xlink:href="#aD"/><use transform="matrix(0.05,0,0,0.05,10,0)" xlink:href="#T"/></g><g id="q"><use transform="matrix(0.05,0,0,0.05,0,0)" xlink:href="#aC"/><use transform="matrix(0.05,0,0,0.05,8.950000000000001,0)" xlink:href="#ag"/><use transform="matrix(0.05,0,0,0.05,18.950000000000003,0)" xlink:href="#W"/><use transform="matrix(0.05,0,0,0.05,27.950000000000003,0)" xlink:href="#ae"/><use transform="matrix(0.05,0,0,0.05,36.95,0)" xlink:href="#X"/><use transform="matrix(0.05,0,0,0.05,40.900000000000006,0)" xlink:href="#al"/></g><path fill="#3a414a" d="M85 4C-4 8 31-112 24-190h32v120c0 31 7 50 39 49 72-2 45-101 50-169h31l1 190h-30c-1-10 1-25-2-33-11 22-28 36-60 37zm34-218v-33h29v33h-29zm-69 0v-33h29v33H50" id="aE"/><path fill="#3a414a" d="M9 0v-24l116-142H16v-24h144v24L44-24h123V0H9" id="aF"/><g id="r"><use transform="matrix(0.05,0,0,0.05,0,0)" xlink:href="#ak"/><use transform="matrix(0.05,0,0,0.05,10,0)" xlink:href="#aE"/><use transform="matrix(0.05,0,0,0.05,20,0)" xlink:href="#aF"/><use transform="matrix(0.05,0,0,0.05,29,0)" xlink:href="#ac"/><use transform="matrix(0.05,0,0,0.05,39,0)" xlink:href="#Y"/><use transform="matrix(0.05,0,0,0.05,49,0)" xlink:href="#Z"/><use transform="matrix(0.05,0,0,0.05,52.95,0)" xlink:href="#ac"/><use transform="matrix(0.05,0,0,0.05,62.95,0)" xlink:href="#al"/><use transform="matrix(0.05,0,0,0.05,77.9,0)" xlink:href="#ac"/></g><path fill="#3a414a" d="M101-234c-31-9-42 10-38 44h38v23H63V0H32v-167H5v-23h27c-7-52 17-82 69-68v24" id="aG"/><g id="s"><use transform="matrix(0.05,0,0,0.05,0,0)" xlink:href="#ab"/><use transform="matrix(0.05,0,0,0.05,9,0)" xlink:href="#ag"/><use transform="matrix(0.05,0,0,0.05,19,0)" xlink:href="#ah"/><use transform="matrix(0.05,0,0,0.05,28,0)" xlink:href="#aG"/><use transform="matrix(0.05,0,0,0.05,33,0)" xlink:href="#ag"/><use transform="matrix(0.05,0,0,0.05,43,0)" xlink:href="#ab"/><use transform="matrix(0.05,0,0,0.05,52,0)" xlink:href="#ay"/><use transform="matrix(0.05,0,0,0.05,57,0)" xlink:href="#Y"/><use transform="matrix(0.05,0,0,0.05,67,0)" xlink:href="#ag"/></g><g id="t"><use transform="matrix(0.05,0,0,0.05,0,0)" xlink:href="#au"/><use transform="matrix(0.05,0,0,0.05,10,0)" xlink:href="#X"/><use transform="matrix(0.05,0,0,0.05,13.949999999999998,0)" xlink:href="#ad"/></g><path fill="#3a414a" d="M101-251c82-7 93 87 43 132L82-64C71-53 59-42 53-27h129V0H18c2-99 128-94 128-182 0-28-16-43-45-43s-46 15-49 41l-32-3c6-41 34-60 81-64" id="aH"/><g id="u"><use transform="matrix(0.05,0,0,0.05,0,0)" xlink:href="#aH"/><use transform="matrix(0.05,0,0,0.05,10,0)" xlink:href="#T"/></g><path fill="#3a414a" d="M143 4C61 4 22-44 18-125c-5-107 100-154 193-111 17 8 29 25 37 43l-32 9c-13-25-37-40-76-40-61 0-88 39-88 99 0 61 29 100 91 101 35 0 62-11 79-27v-45h-74v-28h105v86C228-13 192 4 143 4" id="aI"/><g id="v"><use transform="matrix(0.05,0,0,0.05,0,0)" xlink:href="#aI"/><use transform="matrix(0.05,0,0,0.05,14,0)" xlink:href="#aE"/><use transform="matrix(0.05,0,0,0.05,24,0)" xlink:href="#Y"/></g><g id="w"><use transform="matrix(0.05,0,0,0.05,0,0)" xlink:href="#ae"/><use transform="matrix(0.05,0,0,0.05,9,0)" xlink:href="#ac"/></g><g id="x"><use transform="matrix(0.05,0,0,0.05,0,0)" xlink:href="#ab"/><use transform="matrix(0.05,0,0,0.05,9,0)" xlink:href="#ag"/><use transform="matrix(0.05,0,0,0.05,19,0)" xlink:href="#ag"/><use transform="matrix(0.05,0,0,0.05,29,0)" xlink:href="#V"/></g><path fill="#3a414a" d="M96-169c-40 0-48 33-48 73s9 75 48 75c24 0 41-14 43-38l32 2c-6 37-31 61-74 61-59 0-76-41-82-99-10-93 101-131 147-64 4 7 5 14 7 22l-32 3c-4-21-16-35-41-35zm3 187c19-1 33 8 33 26 0 31-30 33-64 32V58c18 2 39 4 41-13 1-15-18-13-34-13L87 0h19" id="aJ"/><g id="y"><use transform="matrix(0.05,0,0,0.05,0,0)" xlink:href="#ab"/><use transform="matrix(0.05,0,0,0.05,9,0)" xlink:href="#ac"/><use transform="matrix(0.05,0,0,0.05,19,0)" xlink:href="#aJ"/></g><g id="z"><use transform="matrix(0.05,0,0,0.05,0,0)" xlink:href="#S"/><use transform="matrix(0.05,0,0,0.05,10,0)" xlink:href="#T"/></g><g id="A"><use transform="matrix(0.05,0,0,0.05,0,0)" xlink:href="#U"/><use transform="matrix(0.05,0,0,0.05,12,0)" xlink:href="#V"/><use transform="matrix(0.05,0,0,0.05,17,0)" xlink:href="#W"/><use transform="matrix(0.05,0,0,0.05,26,0)" xlink:href="#X"/><use transform="matrix(0.05,0,0,0.05,29.950000000000003,0)" xlink:href="#Y"/><use transform="matrix(0.05,0,0,0.05,39.95,0)" xlink:href="#Z"/><use transform="matrix(0.05,0,0,0.05,43.900000000000006,0)" xlink:href="#X"/><use transform="matrix(0.05,0,0,0.05,47.85000000000001,0)" xlink:href="#W"/></g><g id="B"><use transform="matrix(0.05,0,0,0.05,0,0)" xlink:href="#ac"/><use transform="matrix(0.05,0,0,0.05,10,0)" xlink:href="#W"/><use transform="matrix(0.05,0,0,0.05,19,0)" xlink:href="#Z"/><use transform="matrix(0.05,0,0,0.05,22.95,0)" xlink:href="#ac"/></g><path fill="#3a414a" d="M64 0c3-98 48-159 88-221H18v-27h164v26C143-157 98-101 97 0H64" id="aK"/><g id="C"><use transform="matrix(0.05,0,0,0.05,0,0)" xlink:href="#aK"/><use transform="matrix(0.05,0,0,0.05,10,0)" xlink:href="#T"/></g><g id="D"><use transform="matrix(0.05,0,0,0.05,0,0)" xlink:href="#aI"/><use transform="matrix(0.05,0,0,0.05,14,0)" xlink:href="#aE"/><use transform="matrix(0.05,0,0,0.05,24,0)" xlink:href="#Y"/><use transform="matrix(0.05,0,0,0.05,34,0)" xlink:href="#ao"/><use transform="matrix(0.05,0,0,0.05,43,0)" xlink:href="#ac"/><use transform="matrix(0.05,0,0,0.05,53,0)" xlink:href="#Z"/></g><g id="E"><use transform="matrix(0.05,0,0,0.05,0,0)" xlink:href="#V"/><use transform="matrix(0.05,0,0,0.05,5,0)" xlink:href="#ag"/><use transform="matrix(0.05,0,0,0.05,15,0)" xlink:href="#W"/><use transform="matrix(0.05,0,0,0.05,24,0)" xlink:href="#ae"/><use transform="matrix(0.05,0,0,0.05,33,0)" xlink:href="#X"/><use transform="matrix(0.05,0,0,0.05,36.95,0)" xlink:href="#al"/><use transform="matrix(0.05,0,0,0.05,51.900000000000006,0)" xlink:href="#X"/></g><path fill="#3a414a" d="M84 4C-5 8 30-112 23-190h32v120c0 31 7 50 39 49 72-2 45-101 50-169h31l1 190h-30c-1-10 1-25-2-33-11 22-28 36-60 37" id="aL"/><g id="F"><use transform="matrix(0.05,0,0,0.05,0,0)" xlink:href="#W"/><use transform="matrix(0.05,0,0,0.05,9,0)" xlink:href="#aL"/><use transform="matrix(0.05,0,0,0.05,19,0)" xlink:href="#Z"/><use transform="matrix(0.05,0,0,0.05,22.95,0)" xlink:href="#Z"/><use transform="matrix(0.05,0,0,0.05,26.899999999999995,0)" xlink:href="#ag"/><use transform="matrix(0.05,0,0,0.05,36.9,0)" xlink:href="#Y"/><use transform="matrix(0.05,0,0,0.05,46.9,0)" xlink:href="#ay"/><use transform="matrix(0.05,0,0,0.05,51.900000000000006,0)" xlink:href="#ao"/><use transform="matrix(0.05,0,0,0.05,60.900000000000006,0)" xlink:href="#ay"/><use transform="matrix(0.05,0,0,0.05,65.9,0)" xlink:href="#ah"/><use transform="matrix(0.05,0,0,0.05,74.9,0)" xlink:href="#ag"/></g><g id="G"><use transform="matrix(0.05,0,0,0.05,0,0)" xlink:href="#ah"/><use transform="matrix(0.05,0,0,0.05,9,0)" xlink:href="#ai"/><use transform="matrix(0.05,0,0,0.05,19,0)" xlink:href="#Z"/><use transform="matrix(0.05,0,0,0.05,22.95,0)" xlink:href="#Z"/><use transform="matrix(0.05,0,0,0.05,26.899999999999995,0)" xlink:href="#ag"/></g><path fill="#3a414a" d="M155-56V0h-30v-56H8v-25l114-167h33v167h35v25h-35zm-30-156c-27 46-58 90-88 131h88v-131" id="aM"/><g id="H"><use transform="matrix(0.05,0,0,0.05,0,0)" xlink:href="#aM"/><use transform="matrix(0.05,0,0,0.05,10,0)" xlink:href="#T"/></g><path fill="#3a414a" d="M137-103V0h-34v-103L8-248h37l75 118 75-118h37" id="aN"/><g id="I"><use transform="matrix(0.05,0,0,0.05,0,0)" xlink:href="#aN"/><use transform="matrix(0.05,0,0,0.05,10.35,0)" xlink:href="#ai"/><use transform="matrix(0.05,0,0,0.05,20.35,0)" xlink:href="#W"/><use transform="matrix(0.05,0,0,0.05,29.35,0)" xlink:href="#ab"/><use transform="matrix(0.05,0,0,0.05,38.35,0)" xlink:href="#ag"/></g><g id="J"><use transform="matrix(0.05,0,0,0.05,0,0)" xlink:href="#V"/><use transform="matrix(0.05,0,0,0.05,5,0)" xlink:href="#ag"/><use transform="matrix(0.05,0,0,0.05,15,0)" xlink:href="#W"/><use transform="matrix(0.05,0,0,0.05,24,0)" xlink:href="#ae"/><use transform="matrix(0.05,0,0,0.05,33,0)" xlink:href="#X"/><use transform="matrix(0.05,0,0,0.05,36.95,0)" xlink:href="#al"/></g><path fill="#3a414a" d="M135-143c-3-34-86-38-87 0 15 53 115 12 119 90S17 21 10-45l28-5c4 36 97 45 98 0-10-56-113-15-118-90-4-57 82-63 122-42 12 7 21 19 24 35zM90 18c19-1 33 8 33 26 0 31-30 33-64 32V58c18 2 39 4 41-13 1-15-18-13-34-13L78 0h19" id="aO"/><g id="K"><use transform="matrix(0.05,0,0,0.05,0,0)" xlink:href="#ai"/><use transform="matrix(0.05,0,0,0.05,10,0)" xlink:href="#Z"/><use transform="matrix(0.05,0,0,0.05,13.949999999999998,0)" xlink:href="#aL"/><use transform="matrix(0.05,0,0,0.05,23.95,0)" xlink:href="#aO"/><use transform="matrix(0.05,0,0,0.05,32.95,0)" xlink:href="#V"/><use transform="matrix(0.05,0,0,0.05,37.95,0)" xlink:href="#aL"/><use transform="matrix(0.05,0,0,0.05,47.95,0)" xlink:href="#ad"/></g><path fill="#3a414a" d="M54-142c48-35 137-8 131 61C196 18 31 33 14-55l32-4c7 23 22 37 52 37 35-1 51-22 54-58 4-55-73-65-99-34H22l8-134h141v27H59" id="aP"/><g id="L"><use transform="matrix(0.05,0,0,0.05,0,0)" xlink:href="#aP"/><use transform="matrix(0.05,0,0,0.05,10,0)" xlink:href="#T"/></g><g id="M"><use transform="matrix(0.05,0,0,0.05,0,0)" xlink:href="#U"/><use transform="matrix(0.05,0,0,0.05,12,0)" xlink:href="#V"/><use transform="matrix(0.05,0,0,0.05,17,0)" xlink:href="#W"/><use transform="matrix(0.05,0,0,0.05,26,0)" xlink:href="#X"/><use transform="matrix(0.05,0,0,0.05,29.950000000000003,0)" xlink:href="#Y"/><use transform="matrix(0.05,0,0,0.05,39.95,0)" xlink:href="#Z"/><use transform="matrix(0.05,0,0,0.05,43.900000000000006,0)" xlink:href="#X"/><use transform="matrix(0.05,0,0,0.05,47.85000000000001,0)" xlink:href="#aa"/><use transform="matrix(0.05,0,0,0.05,57.85,0)" xlink:href="#X"/></g><path fill="#3a414a" d="M134-131c28 9 52 24 51 62-1 50-34 73-85 73S17-19 16-69c0-36 21-54 49-61-75-25-45-126 34-121 46 3 78 18 79 63 0 33-17 51-44 57zm-34-11c31 1 46-15 46-44 0-28-17-43-47-42-29 0-46 13-45 42 1 28 16 44 46 44zm1 122c35 0 51-18 51-52 0-30-18-46-53-46-33 0-51 17-51 47 0 34 19 51 53 51" id="aQ"/><g id="N"><use transform="matrix(0.05,0,0,0.05,0,0)" xlink:href="#aQ"/><use transform="matrix(0.05,0,0,0.05,10,0)" xlink:href="#T"/></g><g id="O"><use transform="matrix(0.05,0,0,0.05,0,0)" xlink:href="#aj"/><use transform="matrix(0.05,0,0,0.05,12,0)" xlink:href="#ad"/><use transform="matrix(0.05,0,0,0.05,17.95,0)" xlink:href="#ag"/><use transform="matrix(0.05,0,0,0.05,27.950000000000003,0)" xlink:href="#ah"/><use transform="matrix(0.05,0,0,0.05,36.95,0)" xlink:href="#aE"/><use transform="matrix(0.05,0,0,0.05,46.95,0)" xlink:href="#aF"/><use transform="matrix(0.05,0,0,0.05,55.95,0)" xlink:href="#ak"/><use transform="matrix(0.05,0,0,0.05,65.95,0)" xlink:href="#ac"/><use transform="matrix(0.05,0,0,0.05,75.95,0)" xlink:href="#W"/><use transform="matrix(0.05,0,0,0.05,84.95,0)" xlink:href="#X"/></g><g id="P"><use transform="matrix(0.05,0,0,0.05,0,0)" xlink:href="#au"/><use transform="matrix(0.05,0,0,0.05,10,0)" xlink:href="#aE"/><use transform="matrix(0.05,0,0,0.05,20,0)" xlink:href="#Y"/><use transform="matrix(0.05,0,0,0.05,30,0)" xlink:href="#ao"/><use transform="matrix(0.05,0,0,0.05,39,0)" xlink:href="#ac"/><use transform="matrix(0.05,0,0,0.05,49,0)" xlink:href="#Z"/><use transform="matrix(0.05,0,0,0.05,52.95,0)" xlink:href="#Z"/><use transform="matrix(0.05,0,0,0.05,56.900000000000006,0)" xlink:href="#ac"/></g></defs></g></svg>