<svg xmlns="http://www.w3.org/2000/svg" xmlns:xlink="http://www.w3.org/1999/xlink" xmlns:lucid="lucid" width="1542" height="2011"><g transform="translate(-99 121)" lucid:page-tab-id="HWEp-vi-RSFO"><path d="M0-500h6000v2500H0z" fill="#fff"/><path d="M481 176.9h377a12 12 0 0 0 12-12V77.8a12 12 0 0 1 12-12h358" stroke="#333" stroke-width="2" fill="none"/><path d="M461.45 166.9l20 10-20 10" stroke="#333" stroke-width="2" fill="#fff" fill-opacity="0"/><path d="M461.45 176.9h20M481.45 186.9v-20M1269 55.8v20M1279 65.8h-20M1259 65.8c0 5.53-4.48 10-10 10s-10-4.47-10-10c0-5.52 4.48-10 10-10s10 4.48 10 10" stroke="#333" stroke-width="2" fill="#fff"/><path d="M1460 216.5V1240" stroke="#333" stroke-width="2" fill="none"/><path d="M1450 206.5h20M1460 196.5v20M1450 216.5h20" stroke="#333" stroke-width="2" fill="#fff"/><path d="M1450 1278.55l10-20 10 20" stroke="#333" stroke-width="2" fill="#fff" fill-opacity="0"/><path d="M1460 1278.55v-20M1470 1248.55c0 5.53-4.48 10-10 10s-10-4.47-10-10c0-5.52 4.48-10 10-10s10 4.48 10 10" stroke="#333" stroke-width="2" fill="#fff"/><path d="M280 401.5v1142.55a12 12 0 0 0 12 12h188" stroke="#333" stroke-width="2" fill="none"/><path d="M270 391.5h20M280 381.5v20M270 401.5h20" stroke="#333" stroke-width="2" fill="#fff"/><path d="M518.55 1566.05l-20-10 20-10" stroke="#333" stroke-width="2" fill="#fff" fill-opacity="0"/><path d="M518.55 1556.05h-20M498.55 1556.05c0 5.53-4.47 10-10 10-5.52 0-10-4.47-10-10 0-5.52 4.48-10 10-10 5.53 0 10 4.48 10 10" stroke="#333" stroke-width="2" fill="#fff"/><path d="M988.4 1557.3h113.8a12 12 0 0 0 12-12v-101.9a12 12 0 0 1 12-12H1259" stroke="#333" stroke-width="2" fill="none"/><path d="M949.85 1547.3l20 10-20 10" stroke="#333" stroke-width="2" fill="#fff" fill-opacity="0"/><path d="M949.85 1557.3h20M989.85 1557.3c0 5.53-4.48 10-10 10-5.53 0-10-4.47-10-10 0-5.5 4.47-10 10-10 5.52 0 10 4.5 10 10M1269 1421.4v20M1279 1431.4h-20M1259 1421.4v20" stroke="#333" stroke-width="2" fill="#fff"/><path d="M980-61.5h468a12 12 0 0 1 12 12v36" stroke="#333" stroke-width="2" fill="none"/><path d="M951-51.5v-20M941-61.5h20M981-61.5c0 5.53-4.48 10-10 10s-10-4.47-10-10c0-5.5 4.48-10 10-10s10 4.5 10 10M1470-3.5h-20M1460 6.5v-20M1470-13.5h-20" stroke="#333" stroke-width="2" fill="#fff"/><path d="M580-61.5H292a12 12 0 0 0-12 12v36" stroke="#333" stroke-width="2" fill="none"/><path d="M609-71.5v20M619-61.5h-20M599-61.5c0 5.53-4.48 10-10 10s-10-4.47-10-10c0-5.5 4.48-10 10-10s10 4.5 10 10M290-3.5h-20M280 6.5v-20M290-13.5h-20" stroke="#333" stroke-width="2" fill="#fff"/><path d="M620-120h320V-6H620z" fill="#fff"/><path d="M620-43v37h320v-37" fill="#e6e6e6"/><path d="M620-80v-40h320v40" fill="#ccc"/><path d="M620-120h320V-6H620zM620-80h320M769.1-80v74" stroke="#282c33" stroke-width="2" fill="none"/><use xlink:href="#a" transform="matrix(1,0,0,1,630,-120) translate(117.61141975308642 24.488888888888887)"/><use xlink:href="#b" transform="matrix(1,0,0,1,625,-77.5) translate(28.321913580246928 20.488888888888887)"/><use xlink:href="#c" transform="matrix(1,0,0,1,774.0886716701846,-77.5) translate(36.92037037037038 20.488888888888887)"/><use xlink:href="#d" transform="matrix(1,0,0,1,625,-40.5) translate(16.445061728395075 20.488888888888887)"/><use xlink:href="#e" transform="matrix(1,0,0,1,774.0886716701846,-40.5) translate(51.259876543209884 20.488888888888887)"/><path d="M100 7.5h360v373H100z" fill="#fff"/><path d="M100 84.5v38h360v-38M100 158.5v38h360v-38M100 232.5v38h360v-38M100 306.5v38h360v-38" fill="#e6e6e6"/><path d="M100 47.5v-40h360v40" fill="#ccc"/><path d="M100 7.5h360v373H100zM100 47.5h360M305.8 47.5v333" stroke="#282c33" stroke-width="2" fill="none"/><use xlink:href="#f" transform="matrix(1,0,0,1,110,7.5) translate(145.0929012345679 24.488888888888887)"/><use xlink:href="#g" transform="matrix(1,0,0,1,105,50) translate(66.85833333333333 20.488888888888887)"/><use xlink:href="#c" transform="matrix(1,0,0,1,310.81061036514103,50) translate(28.920370370370378 20.488888888888887)"/><use xlink:href="#h" transform="matrix(1,0,0,1,105,87) translate(46.34660493827161 20.488888888888887)"/><use xlink:href="#e" transform="matrix(1,0,0,1,310.81061036514103,87) translate(43.259876543209884 20.488888888888887)"/><use xlink:href="#i" transform="matrix(1,0,0,1,105,124) translate(25.14907407407408 20.488888888888887)"/><use xlink:href="#e" transform="matrix(1,0,0,1,310.81061036514103,124) translate(43.259876543209884 20.488888888888887)"/><use xlink:href="#j" transform="matrix(1,0,0,1,105,161) translate(71.28487654320989 20.488888888888887)"/><use xlink:href="#e" transform="matrix(1,0,0,1,310.81061036514103,161) translate(43.259876543209884 20.488888888888887)"/><use xlink:href="#k" transform="matrix(1,0,0,1,105,198) translate(50.05617283950619 20.488888888888887)"/><use xlink:href="#e" transform="matrix(1,0,0,1,310.81061036514103,198) translate(43.259876543209884 20.488888888888887)"/><use xlink:href="#l" transform="matrix(1,0,0,1,105,235) translate(58.12993827160495 20.488888888888887)"/><use xlink:href="#e" transform="matrix(1,0,0,1,310.81061036514103,235) translate(43.259876543209884 20.488888888888887)"/><use xlink:href="#m" transform="matrix(1,0,0,1,105,272) translate(27.01944444444446 20.488888888888887)"/><use xlink:href="#e" transform="matrix(1,0,0,1,310.81061036514103,272) translate(43.259876543209884 20.488888888888887)"/><use xlink:href="#n" transform="matrix(1,0,0,1,105,309) translate(21.50185185185188 20.488888888888887)"/><use xlink:href="#c" transform="matrix(1,0,0,1,310.81061036514103,309) translate(28.920370370370378 20.488888888888887)"/><use xlink:href="#o" transform="matrix(1,0,0,1,105,346) translate(79.35864197530864 20.488888888888887)"/><use xlink:href="#e" transform="matrix(1,0,0,1,310.81061036514103,346) translate(43.259876543209884 20.488888888888887)"/><path d="M1280 7.5h360v188h-360z" fill="#fff"/><path d="M1280 84.5v38h360v-38M1280 158.5v37h360v-37" fill="#e6e6e6"/><path d="M1280 47.5v-40h360v40" fill="#ccc"/><path d="M1280 7.5h360v188h-360zM1280 47.5h360M1485.8 47.5v148" stroke="#282c33" stroke-width="2" fill="none"/><use xlink:href="#p" transform="matrix(1,0,0,1,1290,7.5) translate(119.00123456790125 24.488888888888887)"/><use xlink:href="#q" transform="matrix(1,0,0,1,1285,50) translate(43.16697530864198 20.488888888888887)"/><use xlink:href="#c" transform="matrix(1,0,0,1,1490.810610365141,50) translate(28.920370370370378 20.488888888888887)"/><use xlink:href="#r" transform="matrix(1,0,0,1,1285,87) translate(59.40802469135803 20.488888888888887)"/><use xlink:href="#s" transform="matrix(1,0,0,1,1490.810610365141,87) translate(-1.597839506172818 20.488888888888887)"/><use xlink:href="#t" transform="matrix(1,0,0,1,1285,124) translate(22.655246913580257 20.488888888888887)"/><use xlink:href="#e" transform="matrix(1,0,0,1,1490.810610365141,124) translate(43.259876543209884 20.488888888888887)"/><use xlink:href="#u" transform="matrix(1,0,0,1,1285,161) translate(21.377160493827162 20.488888888888887)"/><use xlink:href="#c" transform="matrix(1,0,0,1,1490.810610365141,161) translate(28.920370370370378 20.488888888888887)"/><path d="M520 1220h428.4v669H520z" fill="#fff"/><path d="M520 1297v38h428.4v-38M520 1371v38h428.4v-38M520 1445v38h428.4v-38M520 1519v38h428.4v-38M520 1593v38h428.4v-38M520 1667v38h428.4v-38M520 1741v38h428.4v-38M520 1815v38h428.4v-38" fill="#e6e6e6"/><path d="M520 1260v-40h428.4v40" fill="#ccc"/><path d="M520 1220h428.4v669H520zM520 1260h428.4M816.8 1260v629" stroke="#282c33" stroke-width="2" fill="none"/><use xlink:href="#v" transform="matrix(1,0,0,1,530,1220) translate(143.58827160493829 24.488888888888887)"/><use xlink:href="#w" transform="matrix(1,0,0,1,525,1262.5) translate(78.7851851851852 20.488888888888887)"/><use xlink:href="#c" transform="matrix(1,0,0,1,821.8000000000002,1262.5) translate(17.420370370370378 20.488888888888887)"/><use xlink:href="#x" transform="matrix(1,0,0,1,525,1299.5) translate(101.16728395061729 20.488888888888887)"/><use xlink:href="#c" transform="matrix(1,0,0,1,821.8000000000002,1299.5) translate(17.420370370370378 20.488888888888887)"/><use xlink:href="#y" transform="matrix(1,0,0,1,525,1336.5) translate(110.51913580246914 20.488888888888887)"/><use xlink:href="#c" transform="matrix(1,0,0,1,821.8000000000002,1336.5) translate(17.420370370370378 20.488888888888887)"/><use xlink:href="#z" transform="matrix(1,0,0,1,525,1373.5) translate(115.47561728395063 20.488888888888887)"/><use xlink:href="#e" transform="matrix(1,0,0,1,821.8000000000002,1373.5) translate(31.759876543209884 20.488888888888887)"/><use xlink:href="#A" transform="matrix(1,0,0,1,525,1410.5) translate(99.92037037037038 20.488888888888887)"/><use xlink:href="#e" transform="matrix(1,0,0,1,821.8000000000002,1410.5) translate(31.759876543209884 20.488888888888887)"/><use xlink:href="#j" transform="matrix(1,0,0,1,525,1447.5) translate(116.78487654320989 20.488888888888887)"/><use xlink:href="#e" transform="matrix(1,0,0,1,821.8000000000002,1447.5) translate(31.759876543209884 20.488888888888887)"/><use xlink:href="#l" transform="matrix(1,0,0,1,525,1484.5) translate(103.62993827160494 20.488888888888887)"/><use xlink:href="#e" transform="matrix(1,0,0,1,821.8000000000002,1484.5) translate(31.759876543209884 20.488888888888887)"/><use xlink:href="#B" transform="matrix(1,0,0,1,525,1521.5) translate(20.772530864197535 20.488888888888887)"/><use xlink:href="#e" transform="matrix(1,0,0,1,821.8000000000002,1521.5) translate(31.759876543209884 20.488888888888887)"/><use xlink:href="#C" transform="matrix(1,0,0,1,525,1558.5) translate(5.934259259259278 20.488888888888887)"/><use xlink:href="#e" transform="matrix(1,0,0,1,821.8000000000002,1558.5) translate(31.759876543209884 20.488888888888887)"/><use xlink:href="#D" transform="matrix(1,0,0,1,525,1595.5) translate(54.40802469135804 20.488888888888887)"/><use xlink:href="#E" transform="matrix(1,0,0,1,821.8000000000002,1595.5) translate(37.339814814814815 20.488888888888887)"/><use xlink:href="#F" transform="matrix(1,0,0,1,525,1632.5) translate(43.21697530864199 20.488888888888887)"/><use xlink:href="#G" transform="matrix(1,0,0,1,821.8000000000002,1632.5) translate(1.2416666666666814 20.488888888888887)"/><use xlink:href="#H" transform="matrix(1,0,0,1,525,1669.5) translate(90.5996913580247 20.488888888888887)"/><use xlink:href="#e" transform="matrix(1,0,0,1,821.8000000000002,1669.5) translate(31.759876543209884 20.488888888888887)"/><use xlink:href="#I" transform="matrix(1,0,0,1,525,1706.5) translate(83.7104938271605 20.488888888888887)"/><use xlink:href="#J" transform="matrix(1,0,0,1,821.8000000000002,1706.5) translate(27.364506172839512 20.488888888888887)"/><use xlink:href="#K" transform="matrix(1,0,0,1,525,1743.5) translate(119.27870370370371 20.488888888888887)"/><use xlink:href="#G" transform="matrix(1,0,0,1,821.8000000000002,1743.5) translate(1.2416666666666814 20.488888888888887)"/><use xlink:href="#L" transform="matrix(1,0,0,1,525,1780.5) translate(89.97623456790126 20.488888888888887)"/><use xlink:href="#G" transform="matrix(1,0,0,1,821.8000000000002,1780.5) translate(1.2416666666666814 20.488888888888887)"/><use xlink:href="#M" transform="matrix(1,0,0,1,525,1817.5) translate(91.78425925925927 20.488888888888887)"/><use xlink:href="#G" transform="matrix(1,0,0,1,821.8000000000002,1817.5) translate(1.2416666666666814 20.488888888888887)"/><use xlink:href="#N" transform="matrix(1,0,0,1,525,1854.5) translate(94.30925925925926 20.488888888888887)"/><use xlink:href="#e" transform="matrix(1,0,0,1,821.8000000000002,1854.5) translate(31.759876543209884 20.488888888888887)"/><path d="M1280 1280h360v299h-360z" fill="#fff"/><path d="M1280 1357v38h360v-38M1280 1431v38h360v-38M1280 1505v38h360v-38" fill="#e6e6e6"/><path d="M1280 1320v-40h360v40" fill="#ccc"/><path d="M1280 1280h360v299h-360zM1280 1320h360M1485.8 1320v259" stroke="#282c33" stroke-width="2" fill="none"/><use xlink:href="#O" transform="matrix(1,0,0,1,1290,1280) translate(134.55648148148148 24.488888888888887)"/><use xlink:href="#x" transform="matrix(1,0,0,1,1285,1322.5) translate(55.66728395061729 20.488888888888887)"/><use xlink:href="#c" transform="matrix(1,0,0,1,1490.810610365141,1322.5) translate(28.920370370370378 20.488888888888887)"/><use xlink:href="#P" transform="matrix(1,0,0,1,1285,1359.5) translate(41.32777777777778 20.488888888888887)"/><use xlink:href="#c" transform="matrix(1,0,0,1,1490.810610365141,1359.5) translate(28.920370370370378 20.488888888888887)"/><use xlink:href="#Q" transform="matrix(1,0,0,1,1285,1396.5) translate(59.40802469135804 20.488888888888887)"/><use xlink:href="#e" transform="matrix(1,0,0,1,1490.810610365141,1396.5) translate(43.259876543209884 20.488888888888887)"/><use xlink:href="#R" transform="matrix(1,0,0,1,1285,1433.5) translate(63.1175925925926 20.488888888888887)"/><use xlink:href="#e" transform="matrix(1,0,0,1,1490.810610365141,1433.5) translate(43.259876543209884 20.488888888888887)"/><use xlink:href="#S" transform="matrix(1,0,0,1,1285,1470.5) translate(42.63703703703705 20.488888888888887)"/><use xlink:href="#e" transform="matrix(1,0,0,1,1490.810610365141,1470.5) translate(43.259876543209884 20.488888888888887)"/><use xlink:href="#K" transform="matrix(1,0,0,1,1285,1507.5) translate(73.77870370370371 20.488888888888887)"/><use xlink:href="#G" transform="matrix(1,0,0,1,1490.810610365141,1507.5) translate(12.741666666666681 20.488888888888887)"/><use xlink:href="#T" transform="matrix(1,0,0,1,1285,1544.5) translate(40.70432098765433 20.488888888888887)"/><use xlink:href="#E" transform="matrix(1,0,0,1,1490.810610365141,1544.5) translate(48.839814814814815 20.488888888888887)"/><path d="M680 243h360v188H680z" fill="#fff"/><path d="M680 320v38h360v-38M680 394v37h360v-37" fill="#e6e6e6"/><path d="M680 283v-40h360v40" fill="#ccc"/><path d="M680 243h360v188H680zM680 283h360M885.8 283v148" stroke="#282c33" stroke-width="2" fill="none"/><use xlink:href="#U" transform="matrix(1,0,0,1,690,243) translate(121.43271604938273 24.488888888888887)"/><use xlink:href="#V" transform="matrix(1,0,0,1,685,285.5) translate(59.37685185185185 20.488888888888887)"/><use xlink:href="#c" transform="matrix(1,0,0,1,890.810610365141,285.5) translate(28.920370370370378 20.488888888888887)"/><use xlink:href="#P" transform="matrix(1,0,0,1,685,322.5) translate(41.32777777777778 20.488888888888887)"/><use xlink:href="#c" transform="matrix(1,0,0,1,890.810610365141,322.5) translate(28.920370370370378 20.488888888888887)"/><use xlink:href="#W" transform="matrix(1,0,0,1,685,359.5) translate(76.17901234567901 20.488888888888887)"/><use xlink:href="#E" transform="matrix(1,0,0,1,890.810610365141,359.5) translate(48.839814814814815 20.488888888888887)"/><use xlink:href="#y" transform="matrix(1,0,0,1,685,396.5) translate(65.01913580246914 20.488888888888887)"/><use xlink:href="#c" transform="matrix(1,0,0,1,890.810610365141,396.5) translate(28.920370370370378 20.488888888888887)"/><path d="M1259 103h-87a12 12 0 0 0-12 12v211.5a12 12 0 0 1-12 12h-68" stroke="#333" stroke-width="2" fill="none"/><path d="M1269 93v20M1279 103h-20M1259 93v20" stroke="#333" stroke-width="2" fill="#fff"/><path d="M1041.45 328.5l20 10-20 10" stroke="#333" stroke-width="2" fill="#fff" fill-opacity="0"/><path d="M1041.45 338.5h20M1081.45 338.5c0 5.53-4.48 10-10 10-5.53 0-10-4.47-10-10 0-5.5 4.47-10 10-10 5.52 0 10 4.5 10 10" stroke="#333" stroke-width="2" fill="#fff"/><path d="M640 338.5h-58a12 12 0 0 1-12-12V226.1a12 12 0 0 0-12-12h-77" stroke="#333" stroke-width="2" fill="none"/><path d="M678.55 348.5l-20-10 20-10" stroke="#333" stroke-width="2" fill="#fff" fill-opacity="0"/><path d="M678.55 338.5h-20M658.55 338.5c0 5.53-4.47 10-10 10-5.52 0-10-4.47-10-10 0-5.5 4.48-10 10-10 5.53 0 10 4.5 10 10M471 224.1v-20M461 214.1h20M481 224.1v-20" stroke="#333" stroke-width="2" fill="#fff"/><path d="M948.4 600h360v188h-360z" fill="#fff"/><path d="M948.4 677v38h360v-38M948.4 751v37h360v-37" fill="#e6e6e6"/><path d="M948.4 640v-40h360v40" fill="#ccc"/><path d="M948.4 600h360v188h-360zM948.4 640h360M1154.2 640v148" stroke="#282c33" stroke-width="2" fill="none"/><use xlink:href="#X" transform="matrix(1,0,0,1,958.4000000000001,600) translate(145.71635802469137 24.488888888888887)"/><use xlink:href="#Y" transform="matrix(1,0,0,1,953.4000000000001,642.5) translate(66.26604938271606 20.488888888888887)"/><use xlink:href="#c" transform="matrix(1,0,0,1,1159.210610365141,642.5) translate(28.920370370370378 20.488888888888887)"/><use xlink:href="#P" transform="matrix(1,0,0,1,953.4000000000001,679.5) translate(41.32777777777778 20.488888888888887)"/><use xlink:href="#c" transform="matrix(1,0,0,1,1159.210610365141,679.5) translate(28.920370370370378 20.488888888888887)"/><use xlink:href="#Z" transform="matrix(1,0,0,1,953.4000000000001,716.5) translate(52.55000000000001 20.488888888888887)"/><use xlink:href="#E" transform="matrix(1,0,0,1,1159.210610365141,716.5) translate(48.839814814814815 20.488888888888887)"/><use xlink:href="#aa" transform="matrix(1,0,0,1,953.4000000000001,753.5) translate(55.63611111111112 20.488888888888887)"/><use xlink:href="#E" transform="matrix(1,0,0,1,1159.210610365141,753.5) translate(48.839814814814815 20.488888888888887)"/><path d="M948.4 924.5h360v188h-360z" fill="#fff"/><path d="M948.4 1001.5v38h360v-38M948.4 1075.5v37h360v-37" fill="#e6e6e6"/><path d="M948.4 964.5v-40h360v40" fill="#ccc"/><path d="M948.4 924.5h360v188h-360zM948.4 964.5h360M1144.4 964.5v148" stroke="#282c33" stroke-width="2" fill="none"/><use xlink:href="#ab" transform="matrix(1,0,0,1,958.4000000000001,924.5) translate(81.03271604938273 24.488888888888887)"/><use xlink:href="#ac" transform="matrix(1,0,0,1,953.4000000000001,967) translate(39.445061728395075 20.488888888888887)"/><use xlink:href="#c" transform="matrix(1,0,0,1,1149.3999999999996,967) translate(33.92037037037038 20.488888888888887)"/><use xlink:href="#Y" transform="matrix(1,0,0,1,953.4000000000001,1004) translate(61.26604938271606 20.488888888888887)"/><use xlink:href="#c" transform="matrix(1,0,0,1,1149.3999999999996,1004) translate(33.92037037037038 20.488888888888887)"/><use xlink:href="#ad" transform="matrix(1,0,0,1,953.4000000000001,1041) translate(71.80246913580248 20.488888888888887)"/><use xlink:href="#e" transform="matrix(1,0,0,1,1149.3999999999996,1041) translate(48.259876543209884 20.488888888888887)"/><use xlink:href="#ae" transform="matrix(1,0,0,1,953.4000000000001,1078) translate(13.291049382716068 20.488888888888887)"/><use xlink:href="#af" transform="matrix(1,0,0,1,1149.3999999999996,1078) translate(4.680246913580248 20.488888888888887)"/><use xlink:href="#ag" transform="matrix(1,0,0,1,1149.3999999999996,1078) translate(75.69197530864197 20.488888888888887)"/><path d="M400 600h360v188H400z" fill="#fff"/><path d="M400 677v38h360v-38M400 751v37h360v-37" fill="#e6e6e6"/><path d="M400 640v-40h360v40" fill="#ccc"/><path d="M400 600h360v188H400zM400 640h360M605.8 640v148" stroke="#282c33" stroke-width="2" fill="none"/><use xlink:href="#ah" transform="matrix(1,0,0,1,410,600) translate(125.26697530864199 24.488888888888887)"/><use xlink:href="#ai" transform="matrix(1,0,0,1,405,642.5) translate(48.21697530864199 20.488888888888887)"/><use xlink:href="#c" transform="matrix(1,0,0,1,610.810610365141,642.5) translate(28.920370370370378 20.488888888888887)"/><use xlink:href="#Y" transform="matrix(1,0,0,1,405,679.5) translate(66.26604938271606 20.488888888888887)"/><use xlink:href="#c" transform="matrix(1,0,0,1,610.810610365141,679.5) translate(28.920370370370378 20.488888888888887)"/><use xlink:href="#y" transform="matrix(1,0,0,1,405,716.5) translate(65.01913580246914 20.488888888888887)"/><use xlink:href="#c" transform="matrix(1,0,0,1,610.810610365141,716.5) translate(28.920370370370378 20.488888888888887)"/><use xlink:href="#aj" transform="matrix(1,0,0,1,405,753.5) translate(70.59907407407408 20.488888888888887)"/><use xlink:href="#J" transform="matrix(1,0,0,1,610.810610365141,753.5) translate(38.86450617283951 20.488888888888887)"/><path d="M400 924.5h360v151H400z" fill="#fff"/><path d="M400 1001.5v38h360v-38" fill="#e6e6e6"/><path d="M400 964.5v-40h360v40" fill="#ccc"/><path d="M400 924.5h360v151H400zM400 964.5h360M605.8 964.5v111" stroke="#282c33" stroke-width="2" fill="none"/><use xlink:href="#ak" transform="matrix(1,0,0,1,410,924.5) translate(129.53765432098766 24.488888888888887)"/><use xlink:href="#al" transform="matrix(1,0,0,1,405,967) translate(50.710802469135814 20.488888888888887)"/><use xlink:href="#c" transform="matrix(1,0,0,1,610.810610365141,967) translate(28.920370370370378 20.488888888888887)"/><use xlink:href="#ai" transform="matrix(1,0,0,1,405,1004) translate(48.21697530864199 20.488888888888887)"/><use xlink:href="#e" transform="matrix(1,0,0,1,610.810610365141,1004) translate(43.259876543209884 20.488888888888887)"/><use xlink:href="#am" transform="matrix(1,0,0,1,405,1041) translate(61.90185185185186 20.488888888888887)"/><use xlink:href="#e" transform="matrix(1,0,0,1,610.810610365141,1041) translate(43.259876543209884 20.488888888888887)"/><path d="M580 560v-28a12 12 0 0 0-12-12h-16a12 12 0 0 1-12-12V263.32a12 12 0 0 0-12-12h-47" stroke="#333" stroke-width="2" fill="none"/><path d="M570 598.55l10-20 10 20" stroke="#333" stroke-width="2" fill="#fff" fill-opacity="0"/><path d="M580 598.55v-20M590 568.55c0 5.53-4.48 10-10 10s-10-4.47-10-10c0-5.52 4.48-10 10-10s10 4.48 10 10M471 261.32v-20M461 251.32h20M481 261.32v-20" stroke="#333" stroke-width="2" fill="#fff"/><path d="M800 695.5h127.4" stroke="#333" stroke-width="2" fill="none"/><path d="M761.45 685.5l20 10-20 10" stroke="#333" stroke-width="2" fill="#fff" fill-opacity="0"/><path d="M761.45 695.5h20M801.45 695.5c0 5.53-4.48 10-10 10-5.53 0-10-4.47-10-10 0-5.5 4.47-10 10-10 5.52 0 10 4.5 10 10M937.4 685.5v20M947.4 695.5h-20M927.4 685.5v20" stroke="#333" stroke-width="2" fill="#fff"/><path d="M580 809v94.5" stroke="#333" stroke-width="2" fill="none"/><path d="M570 799h20M580 789v20M570 809h20" stroke="#333" stroke-width="2" fill="#fff"/><path d="M570 923.05l10-20 10 20" stroke="#333" stroke-width="2" fill="#fff" fill-opacity="0"/><path d="M580 923.05v-20M590 903.05h-20" stroke="#333" stroke-width="2" fill="#fff"/><path d="M1128.4 809v94.5" stroke="#333" stroke-width="2" fill="none"/><path d="M1118.4 799h20M1128.4 789v20M1118.4 809h20" stroke="#333" stroke-width="2" fill="#fff"/><path d="M1118.4 923.05l10-20 10 20" stroke="#333" stroke-width="2" fill="#fff" fill-opacity="0"/><path d="M1128.4 923.05v-20M1138.4 903.05h-20" stroke="#333" stroke-width="2" fill="#fff"/><path d="M1259 140.2h-47a12 12 0 0 0-12 12V508a12 12 0 0 1-12 12h-47.6a12 12 0 0 0-12 12v28" stroke="#333" stroke-width="2" fill="none"/><path d="M1269 130.2v20M1279 140.2h-20M1259 130.2v20" stroke="#333" stroke-width="2" fill="#fff"/><path d="M1118.4 598.55l10-20 10 20" stroke="#333" stroke-width="2" fill="#fff" fill-opacity="0"/><path d="M1128.4 598.55v-20M1138.4 568.55c0 5.53-4.48 10-10 10s-10-4.47-10-10c0-5.52 4.48-10 10-10s10 4.48 10 10" stroke="#333" stroke-width="2" fill="#fff"/><defs><path fill="#282c33" d="M24 0v-248h52V0H24" id="an"/><path fill="#282c33" d="M220-157c-53 9-28 100-34 157h-49v-107c1-27-5-49-29-50C55-147 81-57 75 0H25l-1-190h47c2 12-1 28 3 38 10-53 101-56 108 0 13-22 24-43 59-42 82 1 51 116 57 194h-49v-107c-1-25-5-48-29-50" id="ao"/><path fill="#282c33" d="M133-34C117-15 103 5 69 4 32 3 11-16 11-54c-1-60 55-63 116-61 1-26-3-47-28-47-18 1-26 9-28 27l-52-2c7-38 36-58 82-57s74 22 75 68l1 82c-1 14 12 18 25 15v27c-30 8-71 5-69-32zm-48 3c29 0 43-24 42-57-32 0-66-3-65 30 0 17 8 27 23 27" id="ap"/><path fill="#282c33" d="M195-6C206 82 75 100 31 46c-4-6-6-13-8-21l49-6c3 16 16 24 34 25 40 0 42-37 40-79-11 22-30 35-61 35-53 0-70-43-70-97 0-56 18-96 73-97 30 0 46 14 59 34l2-30h47zm-90-29c32 0 41-27 41-63 0-35-9-62-40-62-32 0-39 29-40 63 0 36 9 62 39 62" id="aq"/><path fill="#282c33" d="M185-48c-13 30-37 53-82 52C43 2 14-33 14-96s30-98 90-98c62 0 83 45 84 108H66c0 31 8 55 39 56 18 0 30-7 34-22zm-45-69c5-46-57-63-70-21-2 6-4 13-4 21h74" id="ar"/><g id="a"><use transform="matrix(0.06234567901234567,0,0,0.06234567901234567,0,0)" xlink:href="#an"/><use transform="matrix(0.06234567901234567,0,0,0.06234567901234567,6.234567901234566,0)" xlink:href="#ao"/><use transform="matrix(0.06234567901234567,0,0,0.06234567901234567,26.18518518518518,0)" xlink:href="#ap"/><use transform="matrix(0.06234567901234567,0,0,0.06234567901234567,38.654320987654316,0)" xlink:href="#aq"/><use transform="matrix(0.06234567901234567,0,0,0.06234567901234567,52.308024691358014,0)" xlink:href="#ar"/></g><path fill="#282c33" d="M24-231v-30h32v30H24zM24 0v-190h32V0H24" id="as"/><path fill="#282c33" d="M210-169c-67 3-38 105-44 169h-31v-121c0-29-5-50-35-48C34-165 62-65 56 0H25l-1-190h30c1 10-1 24 2 32 10-44 99-50 107 0 11-21 27-35 58-36 85-2 47 119 55 194h-31v-121c0-29-5-49-35-48" id="at"/><path fill="#282c33" d="M141-36C126-15 110 5 73 4 37 3 15-17 15-53c-1-64 63-63 125-63 3-35-9-54-41-54-24 1-41 7-42 31l-33-3c5-37 33-52 76-52 45 0 72 20 72 64v82c-1 20 7 32 28 27v20c-31 9-61-2-59-35zM48-53c0 20 12 33 32 33 41-3 63-29 60-74-43 2-92-5-92 41" id="au"/><path fill="#282c33" d="M177-190C167-65 218 103 67 71c-23-6-38-20-44-43l32-5c15 47 100 32 89-28v-30C133-14 115 1 83 1 29 1 15-40 15-95c0-56 16-97 71-98 29-1 48 16 59 35 1-10 0-23 2-32h30zM94-22c36 0 50-32 50-73 0-42-14-75-50-75-39 0-46 34-46 75s6 73 46 73" id="av"/><path fill="#282c33" d="M100-194c63 0 86 42 84 106H49c0 40 14 67 53 68 26 1 43-12 49-29l28 8c-11 28-37 45-77 45C44 4 14-33 15-96c1-61 26-98 85-98zm52 81c6-60-76-77-97-28-3 7-6 17-6 28h103" id="aw"/><path fill="#282c33" d="M33 0v-248h34V0H33" id="ax"/><path fill="#282c33" d="M30-248c118-7 216 8 213 122C240-48 200 0 122 0H30v-248zM63-27c89 8 146-16 146-99s-60-101-146-95v194" id="ay"/><g id="b"><use transform="matrix(0.06234567901234567,0,0,0.06234567901234567,0,0)" xlink:href="#as"/><use transform="matrix(0.06234567901234567,0,0,0.06234567901234567,4.925308641975308,0)" xlink:href="#at"/><use transform="matrix(0.06234567901234567,0,0,0.06234567901234567,23.566666666666663,0)" xlink:href="#au"/><use transform="matrix(0.06234567901234567,0,0,0.06234567901234567,36.035802469135795,0)" xlink:href="#av"/><use transform="matrix(0.06234567901234567,0,0,0.06234567901234567,48.50493827160493,0)" xlink:href="#aw"/><use transform="matrix(0.06234567901234567,0,0,0.06234567901234567,60.97407407407406,0)" xlink:href="#ax"/><use transform="matrix(0.06234567901234567,0,0,0.06234567901234567,67.20864197530862,0)" xlink:href="#ay"/></g><path fill="#282c33" d="M140-251c81 0 123 46 123 126C263-46 219 4 140 4 59 4 17-45 17-125s42-126 123-126zm0 227c63 0 89-41 89-101s-29-99-89-99c-61 0-89 39-89 99S79-25 140-24" id="az"/><path fill="#282c33" d="M115-194c53 0 69 39 70 98 0 66-23 100-70 100C84 3 66-7 56-30L54 0H23l1-261h32v101c10-23 28-34 59-34zm-8 174c40 0 45-34 45-75 0-40-5-75-45-74-42 0-51 32-51 76 0 43 10 73 51 73" id="aA"/><path fill="#282c33" d="M24-231v-30h32v30H24zM-9 49c24 4 33-6 33-30v-209h32V24c2 40-23 58-65 49V49" id="aB"/><path fill="#282c33" d="M96-169c-40 0-48 33-48 73s9 75 48 75c24 0 41-14 43-38l32 2c-6 37-31 61-74 61-59 0-76-41-82-99-10-93 101-131 147-64 4 7 5 14 7 22l-32 3c-4-21-16-35-41-35" id="aC"/><path fill="#282c33" d="M59-47c-2 24 18 29 38 22v24C64 9 27 4 27-40v-127H5v-23h24l9-43h21v43h35v23H59v120" id="aD"/><g id="c"><use transform="matrix(0.06234567901234567,0,0,0.06234567901234567,0,0)" xlink:href="#az"/><use transform="matrix(0.06234567901234567,0,0,0.06234567901234567,17.456790123456788,0)" xlink:href="#aA"/><use transform="matrix(0.06234567901234567,0,0,0.06234567901234567,29.92592592592592,0)" xlink:href="#aB"/><use transform="matrix(0.06234567901234567,0,0,0.06234567901234567,34.85123456790123,0)" xlink:href="#aw"/><use transform="matrix(0.06234567901234567,0,0,0.06234567901234567,47.32037037037036,0)" xlink:href="#aC"/><use transform="matrix(0.06234567901234567,0,0,0.06234567901234567,58.542592592592584,0)" xlink:href="#aD"/><use transform="matrix(0.06234567901234567,0,0,0.06234567901234567,64.77716049382715,0)" xlink:href="#ax"/><use transform="matrix(0.06234567901234567,0,0,0.06234567901234567,71.01172839506172,0)" xlink:href="#ay"/></g><path fill="#282c33" d="M30-248c87 1 191-15 191 75 0 78-77 80-158 76V0H30v-248zm33 125c57 0 124 11 124-50 0-59-68-47-124-48v98" id="aE"/><path fill="#282c33" d="M106-169C34-169 62-67 57 0H25v-261h32l-1 103c12-21 28-36 61-36 89 0 53 116 60 194h-32v-121c2-32-8-49-39-48" id="aF"/><g id="d"><use transform="matrix(0.06234567901234567,0,0,0.06234567901234567,0,0)" xlink:href="#as"/><use transform="matrix(0.06234567901234567,0,0,0.06234567901234567,4.925308641975308,0)" xlink:href="#at"/><use transform="matrix(0.06234567901234567,0,0,0.06234567901234567,23.566666666666663,0)" xlink:href="#au"/><use transform="matrix(0.06234567901234567,0,0,0.06234567901234567,36.035802469135795,0)" xlink:href="#av"/><use transform="matrix(0.06234567901234567,0,0,0.06234567901234567,48.50493827160493,0)" xlink:href="#aw"/><use transform="matrix(0.06234567901234567,0,0,0.06234567901234567,60.97407407407406,0)" xlink:href="#aE"/><use transform="matrix(0.06234567901234567,0,0,0.06234567901234567,75.93703703703702,0)" xlink:href="#au"/><use transform="matrix(0.06234567901234567,0,0,0.06234567901234567,88.40617283950616,0)" xlink:href="#aD"/><use transform="matrix(0.06234567901234567,0,0,0.06234567901234567,94.64074074074072,0)" xlink:href="#aF"/></g><path fill="#282c33" d="M185-189c-5-48-123-54-124 2 14 75 158 14 163 119 3 78-121 87-175 55-17-10-28-26-33-46l33-7c5 56 141 63 141-1 0-78-155-14-162-118-5-82 145-84 179-34 5 7 8 16 11 25" id="aG"/><path fill="#282c33" d="M114-163C36-179 61-72 57 0H25l-1-190h30c1 12-1 29 2 39 6-27 23-49 58-41v29" id="aH"/><path fill="#282c33" d="M117-194c89-4 53 116 60 194h-32v-121c0-31-8-49-39-48C34-167 62-67 57 0H25l-1-190h30c1 10-1 24 2 32 11-22 29-35 61-36" id="aI"/><g id="e"><use transform="matrix(0.06234567901234567,0,0,0.06234567901234567,0,0)" xlink:href="#aG"/><use transform="matrix(0.06234567901234567,0,0,0.06234567901234567,14.96296296296296,0)" xlink:href="#aD"/><use transform="matrix(0.06234567901234567,0,0,0.06234567901234567,21.197530864197525,0)" xlink:href="#aH"/><use transform="matrix(0.06234567901234567,0,0,0.06234567901234567,28.61666666666666,0)" xlink:href="#as"/><use transform="matrix(0.06234567901234567,0,0,0.06234567901234567,33.541975308641966,0)" xlink:href="#aI"/><use transform="matrix(0.06234567901234567,0,0,0.06234567901234567,46.0111111111111,0)" xlink:href="#av"/></g><path fill="#282c33" d="M238-95c0 69-44 99-111 99C63 4 22-25 22-93v-155h51v151c-1 38 19 59 55 60 90 1 49-130 58-211h52v153" id="aJ"/><path fill="#282c33" d="M137-138c1-29-70-34-71-4 15 46 118 7 119 86 1 83-164 76-172 9l43-7c4 19 20 25 44 25 33 8 57-30 24-41C81-84 22-81 20-136c-2-80 154-74 161-7" id="aK"/><path fill="#282c33" d="M135-150c-39-12-60 13-60 57V0H25l-1-190h47c2 13-1 29 3 40 6-28 27-53 61-41v41" id="aL"/><g id="f"><use transform="matrix(0.06234567901234567,0,0,0.06234567901234567,0,0)" xlink:href="#aJ"/><use transform="matrix(0.06234567901234567,0,0,0.06234567901234567,16.147530864197527,0)" xlink:href="#aK"/><use transform="matrix(0.06234567901234567,0,0,0.06234567901234567,28.61666666666666,0)" xlink:href="#ar"/><use transform="matrix(0.06234567901234567,0,0,0.06234567901234567,41.08580246913579,0)" xlink:href="#aL"/></g><path fill="#282c33" d="M84 4C-5 8 30-112 23-190h32v120c0 31 7 50 39 49 72-2 45-101 50-169h31l1 190h-30c-1-10 1-25-2-33-11 22-28 36-60 37" id="aM"/><path fill="#282c33" d="M135-143c-3-34-86-38-87 0 15 53 115 12 119 90S17 21 10-45l28-5c4 36 97 45 98 0-10-56-113-15-118-90-4-57 82-63 122-42 12 7 21 19 24 35" id="aN"/><path fill="#282c33" d="M85-194c31 0 48 13 60 33l-1-100h32l1 261h-30c-2-10 0-23-3-31C134-8 116 4 85 4 32 4 16-35 15-94c0-66 23-100 70-100zm9 24c-40 0-46 34-46 75 0 40 6 74 45 74 42 0 51-32 51-76 0-42-9-74-50-73" id="aO"/><g id="g"><use transform="matrix(0.06234567901234567,0,0,0.06234567901234567,0,0)" xlink:href="#aM"/><use transform="matrix(0.06234567901234567,0,0,0.06234567901234567,12.469135802469133,0)" xlink:href="#aN"/><use transform="matrix(0.06234567901234567,0,0,0.06234567901234567,23.691358024691354,0)" xlink:href="#aw"/><use transform="matrix(0.06234567901234567,0,0,0.06234567901234567,36.16049382716049,0)" xlink:href="#aH"/><use transform="matrix(0.06234567901234567,0,0,0.06234567901234567,43.57962962962962,0)" xlink:href="#ax"/><use transform="matrix(0.06234567901234567,0,0,0.06234567901234567,49.81419753086419,0)" xlink:href="#aO"/></g><path fill="#282c33" d="M190 0L58-211 59 0H30v-248h39L202-35l-2-213h31V0h-41" id="aP"/><g id="h"><use transform="matrix(0.06234567901234567,0,0,0.06234567901234567,0,0)" xlink:href="#aM"/><use transform="matrix(0.06234567901234567,0,0,0.06234567901234567,12.469135802469133,0)" xlink:href="#aN"/><use transform="matrix(0.06234567901234567,0,0,0.06234567901234567,23.691358024691354,0)" xlink:href="#aw"/><use transform="matrix(0.06234567901234567,0,0,0.06234567901234567,36.16049382716049,0)" xlink:href="#aH"/><use transform="matrix(0.06234567901234567,0,0,0.06234567901234567,43.57962962962962,0)" xlink:href="#aP"/><use transform="matrix(0.06234567901234567,0,0,0.06234567901234567,59.72716049382715,0)" xlink:href="#au"/><use transform="matrix(0.06234567901234567,0,0,0.06234567901234567,72.19629629629628,0)" xlink:href="#at"/><use transform="matrix(0.06234567901234567,0,0,0.06234567901234567,90.83765432098764,0)" xlink:href="#aw"/></g><path fill="#282c33" d="M30 0v-248h33v221h125V0H30" id="aQ"/><g id="i"><use transform="matrix(0.06234567901234567,0,0,0.06234567901234567,0,0)" xlink:href="#aM"/><use transform="matrix(0.06234567901234567,0,0,0.06234567901234567,12.469135802469133,0)" xlink:href="#aN"/><use transform="matrix(0.06234567901234567,0,0,0.06234567901234567,23.691358024691354,0)" xlink:href="#aw"/><use transform="matrix(0.06234567901234567,0,0,0.06234567901234567,36.16049382716049,0)" xlink:href="#aH"/><use transform="matrix(0.06234567901234567,0,0,0.06234567901234567,43.57962962962962,0)" xlink:href="#aQ"/><use transform="matrix(0.06234567901234567,0,0,0.06234567901234567,56.048765432098755,0)" xlink:href="#au"/><use transform="matrix(0.06234567901234567,0,0,0.06234567901234567,68.51790123456789,0)" xlink:href="#aN"/><use transform="matrix(0.06234567901234567,0,0,0.06234567901234567,79.7401234567901,0)" xlink:href="#aD"/><use transform="matrix(0.06234567901234567,0,0,0.06234567901234567,85.97469135802467,0)" xlink:href="#aP"/><use transform="matrix(0.06234567901234567,0,0,0.06234567901234567,102.1222222222222,0)" xlink:href="#au"/><use transform="matrix(0.06234567901234567,0,0,0.06234567901234567,114.59135802469135,0)" xlink:href="#at"/><use transform="matrix(0.06234567901234567,0,0,0.06234567901234567,133.2327160493827,0)" xlink:href="#aw"/></g><path fill="#282c33" d="M24 0v-261h32V0H24" id="aR"/><g id="j"><use transform="matrix(0.06234567901234567,0,0,0.06234567901234567,0,0)" xlink:href="#aw"/><use transform="matrix(0.06234567901234567,0,0,0.06234567901234567,12.469135802469133,0)" xlink:href="#at"/><use transform="matrix(0.06234567901234567,0,0,0.06234567901234567,31.110493827160486,0)" xlink:href="#au"/><use transform="matrix(0.06234567901234567,0,0,0.06234567901234567,43.57962962962962,0)" xlink:href="#as"/><use transform="matrix(0.06234567901234567,0,0,0.06234567901234567,48.50493827160493,0)" xlink:href="#aR"/></g><path fill="#282c33" d="M115-194c55 1 70 41 70 98S169 2 115 4C84 4 66-9 55-30l1 105H24l-1-265h31l2 30c10-21 28-34 59-34zm-8 174c40 0 45-34 45-75s-6-73-45-74c-42 0-51 32-51 76 0 43 10 73 51 73" id="aS"/><path fill="#282c33" d="M206 0h-36l-40-164L89 0H53L-1-190h32L70-26l43-164h34l41 164 42-164h31" id="aT"/><path fill="#282c33" d="M100-194c62-1 85 37 85 99 1 63-27 99-86 99S16-35 15-95c0-66 28-99 85-99zM99-20c44 1 53-31 53-75 0-43-8-75-51-75s-53 32-53 75 10 74 51 75" id="aU"/><g id="k"><use transform="matrix(0.06234567901234567,0,0,0.06234567901234567,0,0)" xlink:href="#aS"/><use transform="matrix(0.06234567901234567,0,0,0.06234567901234567,12.469135802469133,0)" xlink:href="#au"/><use transform="matrix(0.06234567901234567,0,0,0.06234567901234567,24.938271604938265,0)" xlink:href="#aN"/><use transform="matrix(0.06234567901234567,0,0,0.06234567901234567,36.16049382716049,0)" xlink:href="#aN"/><use transform="matrix(0.06234567901234567,0,0,0.06234567901234567,47.38271604938271,0)" xlink:href="#aT"/><use transform="matrix(0.06234567901234567,0,0,0.06234567901234567,63.530246913580235,0)" xlink:href="#aU"/><use transform="matrix(0.06234567901234567,0,0,0.06234567901234567,75.99938271604937,0)" xlink:href="#aH"/><use transform="matrix(0.06234567901234567,0,0,0.06234567901234567,83.4185185185185,0)" xlink:href="#aO"/></g><g id="l"><use transform="matrix(0.06234567901234567,0,0,0.06234567901234567,0,0)" xlink:href="#au"/><use transform="matrix(0.06234567901234567,0,0,0.06234567901234567,12.469135802469133,0)" xlink:href="#aO"/><use transform="matrix(0.06234567901234567,0,0,0.06234567901234567,24.938271604938265,0)" xlink:href="#aO"/><use transform="matrix(0.06234567901234567,0,0,0.06234567901234567,37.4074074074074,0)" xlink:href="#aH"/><use transform="matrix(0.06234567901234567,0,0,0.06234567901234567,44.82654320987653,0)" xlink:href="#aw"/><use transform="matrix(0.06234567901234567,0,0,0.06234567901234567,57.295679012345666,0)" xlink:href="#aN"/><use transform="matrix(0.06234567901234567,0,0,0.06234567901234567,68.51790123456789,0)" xlink:href="#aN"/></g><g id="m"><use transform="matrix(0.06234567901234567,0,0,0.06234567901234567,0,0)" xlink:href="#aS"/><use transform="matrix(0.06234567901234567,0,0,0.06234567901234567,12.469135802469133,0)" xlink:href="#aF"/><use transform="matrix(0.06234567901234567,0,0,0.06234567901234567,24.938271604938265,0)" xlink:href="#aU"/><use transform="matrix(0.06234567901234567,0,0,0.06234567901234567,37.4074074074074,0)" xlink:href="#aI"/><use transform="matrix(0.06234567901234567,0,0,0.06234567901234567,49.87654320987653,0)" xlink:href="#aw"/><use transform="matrix(0.06234567901234567,0,0,0.06234567901234567,62.34567901234566,0)" xlink:href="#aP"/><use transform="matrix(0.06234567901234567,0,0,0.06234567901234567,78.49320987654319,0)" xlink:href="#aM"/><use transform="matrix(0.06234567901234567,0,0,0.06234567901234567,90.96234567901232,0)" xlink:href="#at"/><use transform="matrix(0.06234567901234567,0,0,0.06234567901234567,109.60370370370367,0)" xlink:href="#aA"/><use transform="matrix(0.06234567901234567,0,0,0.06234567901234567,122.07283950617281,0)" xlink:href="#aw"/><use transform="matrix(0.06234567901234567,0,0,0.06234567901234567,134.54197530864195,0)" xlink:href="#aH"/></g><path fill="#282c33" d="M101-234c-31-9-42 10-38 44h38v23H63V0H32v-167H5v-23h27c-7-52 17-82 69-68v24" id="aV"/><g id="n"><use transform="matrix(0.06234567901234567,0,0,0.06234567901234567,0,0)" xlink:href="#aS"/><use transform="matrix(0.06234567901234567,0,0,0.06234567901234567,12.469135802469133,0)" xlink:href="#aH"/><use transform="matrix(0.06234567901234567,0,0,0.06234567901234567,19.888271604938268,0)" xlink:href="#aU"/><use transform="matrix(0.06234567901234567,0,0,0.06234567901234567,32.3574074074074,0)" xlink:href="#aV"/><use transform="matrix(0.06234567901234567,0,0,0.06234567901234567,38.59197530864196,0)" xlink:href="#as"/><use transform="matrix(0.06234567901234567,0,0,0.06234567901234567,43.51728395061727,0)" xlink:href="#aR"/><use transform="matrix(0.06234567901234567,0,0,0.06234567901234567,48.442592592592575,0)" xlink:href="#aw"/><use transform="matrix(0.06234567901234567,0,0,0.06234567901234567,60.91172839506171,0)" xlink:href="#aE"/><use transform="matrix(0.06234567901234567,0,0,0.06234567901234567,75.87469135802466,0)" xlink:href="#as"/><use transform="matrix(0.06234567901234567,0,0,0.06234567901234567,80.79999999999997,0)" xlink:href="#aC"/><use transform="matrix(0.06234567901234567,0,0,0.06234567901234567,92.02222222222218,0)" xlink:href="#aD"/><use transform="matrix(0.06234567901234567,0,0,0.06234567901234567,98.25679012345675,0)" xlink:href="#aM"/><use transform="matrix(0.06234567901234567,0,0,0.06234567901234567,110.72592592592588,0)" xlink:href="#aH"/><use transform="matrix(0.06234567901234567,0,0,0.06234567901234567,118.145061728395,0)" xlink:href="#aw"/><use transform="matrix(0.06234567901234567,0,0,0.06234567901234567,130.61419753086415,0)" xlink:href="#ax"/><use transform="matrix(0.06234567901234567,0,0,0.06234567901234567,136.8487654320987,0)" xlink:href="#ay"/></g><g id="o"><use transform="matrix(0.06234567901234567,0,0,0.06234567901234567,0,0)" xlink:href="#aH"/><use transform="matrix(0.06234567901234567,0,0,0.06234567901234567,7.4191358024691345,0)" xlink:href="#aU"/><use transform="matrix(0.06234567901234567,0,0,0.06234567901234567,19.888271604938268,0)" xlink:href="#aR"/><use transform="matrix(0.06234567901234567,0,0,0.06234567901234567,24.813580246913574,0)" xlink:href="#aw"/></g><path fill="#282c33" d="M67-125c0 53 21 87 73 88 37 1 54-22 65-47l45 17C233-25 199 4 140 4 58 4 20-42 15-125 8-235 124-281 211-232c18 10 29 29 36 50l-46 12c-8-25-30-41-62-41-52 0-71 34-72 86" id="aW"/><path fill="#282c33" d="M110-194c64 0 96 36 96 99 0 64-35 99-97 99-61 0-95-36-95-99 0-62 34-99 96-99zm-1 164c35 0 45-28 45-65 0-40-10-65-43-65-34 0-45 26-45 65 0 36 10 65 43 65" id="aX"/><path fill="#282c33" d="M135-194c53 0 70 44 70 98 0 56-19 98-73 100-31 1-45-17-59-34 3 33 2 69 2 105H25l-1-265h48c2 10 0 23 3 31 11-24 29-35 60-35zM114-30c33 0 39-31 40-66 0-38-9-64-40-64-56 0-55 130 0 130" id="aY"/><path fill="#282c33" d="M135-194c87-1 58 113 63 194h-50c-7-57 23-157-34-157-59 0-34 97-39 157H25l-1-190h47c2 12-1 28 3 38 12-26 28-41 61-42" id="aZ"/><path fill="#282c33" d="M123 10C108 53 80 86 19 72V37c35 8 53-11 59-39L3-190h52l48 148c12-52 28-100 44-148h51" id="ba"/><g id="p"><use transform="matrix(0.06234567901234567,0,0,0.06234567901234567,0,0)" xlink:href="#aW"/><use transform="matrix(0.06234567901234567,0,0,0.06234567901234567,16.147530864197527,0)" xlink:href="#aX"/><use transform="matrix(0.06234567901234567,0,0,0.06234567901234567,29.80123456790123,0)" xlink:href="#ao"/><use transform="matrix(0.06234567901234567,0,0,0.06234567901234567,49.75185185185184,0)" xlink:href="#aY"/><use transform="matrix(0.06234567901234567,0,0,0.06234567901234567,63.40555555555554,0)" xlink:href="#ap"/><use transform="matrix(0.06234567901234567,0,0,0.06234567901234567,75.87469135802468,0)" xlink:href="#aZ"/><use transform="matrix(0.06234567901234567,0,0,0.06234567901234567,89.52839506172838,0)" xlink:href="#ba"/></g><path fill="#282c33" d="M179-190L93 31C79 59 56 82 12 73V49c39 6 53-20 64-50L1-190h34L92-34l54-156h33" id="bb"/><g id="q"><use transform="matrix(0.06234567901234567,0,0,0.06234567901234567,0,0)" xlink:href="#aC"/><use transform="matrix(0.06234567901234567,0,0,0.06234567901234567,11.22222222222222,0)" xlink:href="#aU"/><use transform="matrix(0.06234567901234567,0,0,0.06234567901234567,23.691358024691354,0)" xlink:href="#at"/><use transform="matrix(0.06234567901234567,0,0,0.06234567901234567,42.33271604938271,0)" xlink:href="#aS"/><use transform="matrix(0.06234567901234567,0,0,0.06234567901234567,54.80185185185184,0)" xlink:href="#au"/><use transform="matrix(0.06234567901234567,0,0,0.06234567901234567,67.27098765432098,0)" xlink:href="#aI"/><use transform="matrix(0.06234567901234567,0,0,0.06234567901234567,79.74012345679012,0)" xlink:href="#bb"/><use transform="matrix(0.06234567901234567,0,0,0.06234567901234567,90.96234567901233,0)" xlink:href="#ax"/><use transform="matrix(0.06234567901234567,0,0,0.06234567901234567,97.1969135802469,0)" xlink:href="#aO"/></g><g id="r"><use transform="matrix(0.06234567901234567,0,0,0.06234567901234567,0,0)" xlink:href="#aM"/><use transform="matrix(0.06234567901234567,0,0,0.06234567901234567,12.469135802469133,0)" xlink:href="#aN"/><use transform="matrix(0.06234567901234567,0,0,0.06234567901234567,23.691358024691354,0)" xlink:href="#aw"/><use transform="matrix(0.06234567901234567,0,0,0.06234567901234567,36.16049382716049,0)" xlink:href="#aH"/><use transform="matrix(0.06234567901234567,0,0,0.06234567901234567,43.57962962962962,0)" xlink:href="#ax"/><use transform="matrix(0.06234567901234567,0,0,0.06234567901234567,49.81419753086419,0)" xlink:href="#ay"/><use transform="matrix(0.06234567901234567,0,0,0.06234567901234567,65.96172839506173,0)" xlink:href="#aN"/></g><path fill="#282c33" d="M18-100v-36l175-74v27L42-118l151 64v27" id="bc"/><path fill="#282c33" d="M18-27v-27l151-64-151-65v-27l175 74v36" id="bd"/><g id="s"><use transform="matrix(0.06234567901234567,0,0,0.06234567901234567,0,0)" xlink:href="#aQ"/><use transform="matrix(0.06234567901234567,0,0,0.06234567901234567,12.469135802469133,0)" xlink:href="#as"/><use transform="matrix(0.06234567901234567,0,0,0.06234567901234567,17.39444444444444,0)" xlink:href="#aN"/><use transform="matrix(0.06234567901234567,0,0,0.06234567901234567,28.61666666666666,0)" xlink:href="#aD"/><use transform="matrix(0.06234567901234567,0,0,0.06234567901234567,34.85123456790123,0)" xlink:href="#bc"/><use transform="matrix(0.06234567901234567,0,0,0.06234567901234567,47.94382716049382,0)" xlink:href="#az"/><use transform="matrix(0.06234567901234567,0,0,0.06234567901234567,65.40061728395061,0)" xlink:href="#aA"/><use transform="matrix(0.06234567901234567,0,0,0.06234567901234567,77.86975308641973,0)" xlink:href="#aB"/><use transform="matrix(0.06234567901234567,0,0,0.06234567901234567,82.79506172839504,0)" xlink:href="#aw"/><use transform="matrix(0.06234567901234567,0,0,0.06234567901234567,95.26419753086418,0)" xlink:href="#aC"/><use transform="matrix(0.06234567901234567,0,0,0.06234567901234567,106.4864197530864,0)" xlink:href="#aD"/><use transform="matrix(0.06234567901234567,0,0,0.06234567901234567,112.72098765432096,0)" xlink:href="#ax"/><use transform="matrix(0.06234567901234567,0,0,0.06234567901234567,118.95555555555553,0)" xlink:href="#ay"/><use transform="matrix(0.06234567901234567,0,0,0.06234567901234567,135.10308641975305,0)" xlink:href="#bd"/></g><g id="t"><use transform="matrix(0.06234567901234567,0,0,0.06234567901234567,0,0)" xlink:href="#aC"/><use transform="matrix(0.06234567901234567,0,0,0.06234567901234567,11.22222222222222,0)" xlink:href="#aU"/><use transform="matrix(0.06234567901234567,0,0,0.06234567901234567,23.691358024691354,0)" xlink:href="#at"/><use transform="matrix(0.06234567901234567,0,0,0.06234567901234567,42.33271604938271,0)" xlink:href="#aS"/><use transform="matrix(0.06234567901234567,0,0,0.06234567901234567,54.80185185185184,0)" xlink:href="#au"/><use transform="matrix(0.06234567901234567,0,0,0.06234567901234567,67.27098765432098,0)" xlink:href="#aI"/><use transform="matrix(0.06234567901234567,0,0,0.06234567901234567,79.74012345679012,0)" xlink:href="#bb"/><use transform="matrix(0.06234567901234567,0,0,0.06234567901234567,90.96234567901233,0)" xlink:href="#aP"/><use transform="matrix(0.06234567901234567,0,0,0.06234567901234567,107.10987654320985,0)" xlink:href="#au"/><use transform="matrix(0.06234567901234567,0,0,0.06234567901234567,119.57901234567899,0)" xlink:href="#at"/><use transform="matrix(0.06234567901234567,0,0,0.06234567901234567,138.22037037037035,0)" xlink:href="#aw"/></g><g id="u"><use transform="matrix(0.06234567901234567,0,0,0.06234567901234567,0,0)" xlink:href="#aC"/><use transform="matrix(0.06234567901234567,0,0,0.06234567901234567,11.22222222222222,0)" xlink:href="#aU"/><use transform="matrix(0.06234567901234567,0,0,0.06234567901234567,23.691358024691354,0)" xlink:href="#at"/><use transform="matrix(0.06234567901234567,0,0,0.06234567901234567,42.33271604938271,0)" xlink:href="#aS"/><use transform="matrix(0.06234567901234567,0,0,0.06234567901234567,54.80185185185184,0)" xlink:href="#au"/><use transform="matrix(0.06234567901234567,0,0,0.06234567901234567,67.27098765432098,0)" xlink:href="#aI"/><use transform="matrix(0.06234567901234567,0,0,0.06234567901234567,79.74012345679012,0)" xlink:href="#bb"/><use transform="matrix(0.06234567901234567,0,0,0.06234567901234567,90.96234567901233,0)" xlink:href="#ax"/><use transform="matrix(0.06234567901234567,0,0,0.06234567901234567,97.1969135802469,0)" xlink:href="#at"/><use transform="matrix(0.06234567901234567,0,0,0.06234567901234567,115.83827160493826,0)" xlink:href="#au"/><use transform="matrix(0.06234567901234567,0,0,0.06234567901234567,128.3074074074074,0)" xlink:href="#av"/><use transform="matrix(0.06234567901234567,0,0,0.06234567901234567,140.77654320987654,0)" xlink:href="#aw"/></g><path fill="#282c33" d="M199 0l-22-63H83L61 0H9l90-248h61L250 0h-51zm-33-102l-36-108c-10 38-24 72-36 108h72" id="be"/><path fill="#282c33" d="M25 0v-261h50V0H25" id="bf"/><path fill="#282c33" d="M25-224v-37h50v37H25zM25 0v-190h50V0H25" id="bg"/><path fill="#282c33" d="M190-63c-7 42-38 67-86 67-59 0-84-38-90-98-12-110 154-137 174-36l-49 2c-2-19-15-32-35-32-30 0-35 28-38 64-6 74 65 87 74 30" id="bh"/><path fill="#282c33" d="M115-3C79 11 28 4 28-45v-112H4v-33h27l15-45h31v45h36v33H77v99c-1 23 16 31 38 25v30" id="bi"/><g id="v"><use transform="matrix(0.06234567901234567,0,0,0.06234567901234567,0,0)" xlink:href="#be"/><use transform="matrix(0.06234567901234567,0,0,0.06234567901234567,16.147530864197527,0)" xlink:href="#aY"/><use transform="matrix(0.06234567901234567,0,0,0.06234567901234567,29.80123456790123,0)" xlink:href="#aY"/><use transform="matrix(0.06234567901234567,0,0,0.06234567901234567,43.45493827160493,0)" xlink:href="#bf"/><use transform="matrix(0.06234567901234567,0,0,0.06234567901234567,49.6895061728395,0)" xlink:href="#bg"/><use transform="matrix(0.06234567901234567,0,0,0.06234567901234567,55.92407407407407,0)" xlink:href="#bh"/><use transform="matrix(0.06234567901234567,0,0,0.06234567901234567,68.39320987654321,0)" xlink:href="#ap"/><use transform="matrix(0.06234567901234567,0,0,0.06234567901234567,80.86234567901235,0)" xlink:href="#bi"/><use transform="matrix(0.06234567901234567,0,0,0.06234567901234567,88.28148148148148,0)" xlink:href="#bg"/><use transform="matrix(0.06234567901234567,0,0,0.06234567901234567,94.51604938271605,0)" xlink:href="#aX"/><use transform="matrix(0.06234567901234567,0,0,0.06234567901234567,108.16975308641975,0)" xlink:href="#aZ"/></g><g id="w"><use transform="matrix(0.06234567901234567,0,0,0.06234567901234567,0,0)" xlink:href="#au"/><use transform="matrix(0.06234567901234567,0,0,0.06234567901234567,12.469135802469133,0)" xlink:href="#aS"/><use transform="matrix(0.06234567901234567,0,0,0.06234567901234567,24.938271604938265,0)" xlink:href="#aS"/><use transform="matrix(0.06234567901234567,0,0,0.06234567901234567,37.4074074074074,0)" xlink:href="#aR"/><use transform="matrix(0.06234567901234567,0,0,0.06234567901234567,42.332716049382704,0)" xlink:href="#as"/><use transform="matrix(0.06234567901234567,0,0,0.06234567901234567,47.25802469135801,0)" xlink:href="#aC"/><use transform="matrix(0.06234567901234567,0,0,0.06234567901234567,58.48024691358023,0)" xlink:href="#au"/><use transform="matrix(0.06234567901234567,0,0,0.06234567901234567,70.94938271604937,0)" xlink:href="#aD"/><use transform="matrix(0.06234567901234567,0,0,0.06234567901234567,77.18395061728394,0)" xlink:href="#as"/><use transform="matrix(0.06234567901234567,0,0,0.06234567901234567,82.10925925925925,0)" xlink:href="#aU"/><use transform="matrix(0.06234567901234567,0,0,0.06234567901234567,94.57839506172837,0)" xlink:href="#aI"/><use transform="matrix(0.06234567901234567,0,0,0.06234567901234567,107.04753086419751,0)" xlink:href="#ax"/><use transform="matrix(0.06234567901234567,0,0,0.06234567901234567,113.28209876543208,0)" xlink:href="#ay"/></g><path fill="#282c33" d="M108 0H70L1-190h34L89-25l56-165h34" id="bj"/><g id="x"><use transform="matrix(0.06234567901234567,0,0,0.06234567901234567,0,0)" xlink:href="#au"/><use transform="matrix(0.06234567901234567,0,0,0.06234567901234567,12.469135802469133,0)" xlink:href="#aO"/><use transform="matrix(0.06234567901234567,0,0,0.06234567901234567,24.938271604938265,0)" xlink:href="#bj"/><use transform="matrix(0.06234567901234567,0,0,0.06234567901234567,36.16049382716049,0)" xlink:href="#aw"/><use transform="matrix(0.06234567901234567,0,0,0.06234567901234567,48.62962962962962,0)" xlink:href="#aH"/><use transform="matrix(0.06234567901234567,0,0,0.06234567901234567,56.048765432098755,0)" xlink:href="#aD"/><use transform="matrix(0.06234567901234567,0,0,0.06234567901234567,62.28333333333332,0)" xlink:href="#ax"/><use transform="matrix(0.06234567901234567,0,0,0.06234567901234567,68.51790123456789,0)" xlink:href="#ay"/></g><g id="y"><use transform="matrix(0.06234567901234567,0,0,0.06234567901234567,0,0)" xlink:href="#aM"/><use transform="matrix(0.06234567901234567,0,0,0.06234567901234567,12.469135802469133,0)" xlink:href="#aN"/><use transform="matrix(0.06234567901234567,0,0,0.06234567901234567,23.691358024691354,0)" xlink:href="#aw"/><use transform="matrix(0.06234567901234567,0,0,0.06234567901234567,36.16049382716049,0)" xlink:href="#aH"/><use transform="matrix(0.06234567901234567,0,0,0.06234567901234567,43.57962962962962,0)" xlink:href="#ax"/><use transform="matrix(0.06234567901234567,0,0,0.06234567901234567,49.81419753086419,0)" xlink:href="#ay"/></g><g id="z"><use transform="matrix(0.06234567901234567,0,0,0.06234567901234567,0,0)" xlink:href="#aI"/><use transform="matrix(0.06234567901234567,0,0,0.06234567901234567,12.469135802469133,0)" xlink:href="#au"/><use transform="matrix(0.06234567901234567,0,0,0.06234567901234567,24.938271604938265,0)" xlink:href="#at"/><use transform="matrix(0.06234567901234567,0,0,0.06234567901234567,43.57962962962962,0)" xlink:href="#aw"/></g><g id="A"><use transform="matrix(0.06234567901234567,0,0,0.06234567901234567,0,0)" xlink:href="#aN"/><use transform="matrix(0.06234567901234567,0,0,0.06234567901234567,11.22222222222222,0)" xlink:href="#aM"/><use transform="matrix(0.06234567901234567,0,0,0.06234567901234567,23.691358024691354,0)" xlink:href="#aH"/><use transform="matrix(0.06234567901234567,0,0,0.06234567901234567,31.11049382716049,0)" xlink:href="#aI"/><use transform="matrix(0.06234567901234567,0,0,0.06234567901234567,43.57962962962962,0)" xlink:href="#au"/><use transform="matrix(0.06234567901234567,0,0,0.06234567901234567,56.048765432098755,0)" xlink:href="#at"/><use transform="matrix(0.06234567901234567,0,0,0.06234567901234567,74.6901234567901,0)" xlink:href="#aw"/></g><path fill="#282c33" d="M30 0v-248h187v28H63v79h144v27H63v87h162V0H30" id="bk"/><g id="B"><use transform="matrix(0.06234567901234567,0,0,0.06234567901234567,0,0)" xlink:href="#aM"/><use transform="matrix(0.06234567901234567,0,0,0.06234567901234567,12.469135802469133,0)" xlink:href="#aI"/><use transform="matrix(0.06234567901234567,0,0,0.06234567901234567,24.938271604938265,0)" xlink:href="#aO"/><use transform="matrix(0.06234567901234567,0,0,0.06234567901234567,37.4074074074074,0)" xlink:href="#aw"/><use transform="matrix(0.06234567901234567,0,0,0.06234567901234567,49.87654320987653,0)" xlink:href="#aH"/><use transform="matrix(0.06234567901234567,0,0,0.06234567901234567,57.295679012345666,0)" xlink:href="#av"/><use transform="matrix(0.06234567901234567,0,0,0.06234567901234567,69.7648148148148,0)" xlink:href="#aH"/><use transform="matrix(0.06234567901234567,0,0,0.06234567901234567,77.18395061728393,0)" xlink:href="#au"/><use transform="matrix(0.06234567901234567,0,0,0.06234567901234567,89.65308641975307,0)" xlink:href="#aO"/><use transform="matrix(0.06234567901234567,0,0,0.06234567901234567,102.1222222222222,0)" xlink:href="#aM"/><use transform="matrix(0.06234567901234567,0,0,0.06234567901234567,114.59135802469135,0)" xlink:href="#au"/><use transform="matrix(0.06234567901234567,0,0,0.06234567901234567,127.06049382716049,0)" xlink:href="#aD"/><use transform="matrix(0.06234567901234567,0,0,0.06234567901234567,133.29506172839504,0)" xlink:href="#aw"/><use transform="matrix(0.06234567901234567,0,0,0.06234567901234567,145.76419753086418,0)" xlink:href="#bk"/><use transform="matrix(0.06234567901234567,0,0,0.06234567901234567,160.72716049382714,0)" xlink:href="#aO"/><use transform="matrix(0.06234567901234567,0,0,0.06234567901234567,173.19629629629628,0)" xlink:href="#aM"/><use transform="matrix(0.06234567901234567,0,0,0.06234567901234567,185.66543209876542,0)" xlink:href="#aC"/><use transform="matrix(0.06234567901234567,0,0,0.06234567901234567,196.88765432098765,0)" xlink:href="#au"/><use transform="matrix(0.06234567901234567,0,0,0.06234567901234567,209.3567901234568,0)" xlink:href="#aD"/><use transform="matrix(0.06234567901234567,0,0,0.06234567901234567,215.59135802469135,0)" xlink:href="#as"/><use transform="matrix(0.06234567901234567,0,0,0.06234567901234567,220.51666666666665,0)" xlink:href="#aU"/><use transform="matrix(0.06234567901234567,0,0,0.06234567901234567,232.9858024691358,0)" xlink:href="#aI"/></g><g id="C"><use transform="matrix(0.06234567901234567,0,0,0.06234567901234567,0,0)" xlink:href="#at"/><use transform="matrix(0.06234567901234567,0,0,0.06234567901234567,18.641358024691353,0)" xlink:href="#au"/><use transform="matrix(0.06234567901234567,0,0,0.06234567901234567,31.110493827160486,0)" xlink:href="#aN"/><use transform="matrix(0.06234567901234567,0,0,0.06234567901234567,42.332716049382704,0)" xlink:href="#aD"/><use transform="matrix(0.06234567901234567,0,0,0.06234567901234567,48.567283950617266,0)" xlink:href="#aw"/><use transform="matrix(0.06234567901234567,0,0,0.06234567901234567,61.0364197530864,0)" xlink:href="#aH"/><use transform="matrix(0.06234567901234567,0,0,0.06234567901234567,68.45555555555553,0)" xlink:href="#aN"/><use transform="matrix(0.06234567901234567,0,0,0.06234567901234567,79.67777777777775,0)" xlink:href="#ay"/><use transform="matrix(0.06234567901234567,0,0,0.06234567901234567,95.82530864197528,0)" xlink:href="#aw"/><use transform="matrix(0.06234567901234567,0,0,0.06234567901234567,108.29444444444442,0)" xlink:href="#av"/><use transform="matrix(0.06234567901234567,0,0,0.06234567901234567,120.76358024691356,0)" xlink:href="#aH"/><use transform="matrix(0.06234567901234567,0,0,0.06234567901234567,128.1827160493827,0)" xlink:href="#aw"/><use transform="matrix(0.06234567901234567,0,0,0.06234567901234567,140.65185185185183,0)" xlink:href="#aw"/><use transform="matrix(0.06234567901234567,0,0,0.06234567901234567,153.12098765432097,0)" xlink:href="#az"/><use transform="matrix(0.06234567901234567,0,0,0.06234567901234567,170.57777777777775,0)" xlink:href="#aH"/><use transform="matrix(0.06234567901234567,0,0,0.06234567901234567,177.99691358024688,0)" xlink:href="#ay"/><use transform="matrix(0.06234567901234567,0,0,0.06234567901234567,194.14444444444442,0)" xlink:href="#aU"/><use transform="matrix(0.06234567901234567,0,0,0.06234567901234567,206.61358024691356,0)" xlink:href="#aC"/><use transform="matrix(0.06234567901234567,0,0,0.06234567901234567,217.83580246913579,0)" xlink:href="#aD"/><use transform="matrix(0.06234567901234567,0,0,0.06234567901234567,224.07037037037034,0)" xlink:href="#aU"/><use transform="matrix(0.06234567901234567,0,0,0.06234567901234567,236.53950617283948,0)" xlink:href="#aH"/><use transform="matrix(0.06234567901234567,0,0,0.06234567901234567,243.9586419753086,0)" xlink:href="#au"/><use transform="matrix(0.06234567901234567,0,0,0.06234567901234567,256.42777777777775,0)" xlink:href="#aD"/><use transform="matrix(0.06234567901234567,0,0,0.06234567901234567,262.66234567901233,0)" xlink:href="#aw"/></g><path fill="#282c33" d="M143 4C61 4 22-44 18-125c-5-107 100-154 193-111 17 8 29 25 37 43l-32 9c-13-25-37-40-76-40-61 0-88 39-88 99 0 61 29 100 91 101 35 0 62-11 79-27v-45h-74v-28h105v86C228-13 192 4 143 4" id="bl"/><g id="D"><use transform="matrix(0.06234567901234567,0,0,0.06234567901234567,0,0)" xlink:href="#aO"/><use transform="matrix(0.06234567901234567,0,0,0.06234567901234567,12.469135802469133,0)" xlink:href="#au"/><use transform="matrix(0.06234567901234567,0,0,0.06234567901234567,24.938271604938265,0)" xlink:href="#aD"/><use transform="matrix(0.06234567901234567,0,0,0.06234567901234567,31.17283950617283,0)" xlink:href="#aw"/><use transform="matrix(0.06234567901234567,0,0,0.06234567901234567,43.64197530864196,0)" xlink:href="#az"/><use transform="matrix(0.06234567901234567,0,0,0.06234567901234567,61.098765432098745,0)" xlink:href="#aV"/><use transform="matrix(0.06234567901234567,0,0,0.06234567901234567,67.33333333333331,0)" xlink:href="#bl"/><use transform="matrix(0.06234567901234567,0,0,0.06234567901234567,84.7901234567901,0)" xlink:href="#aH"/><use transform="matrix(0.06234567901234567,0,0,0.06234567901234567,92.20925925925923,0)" xlink:href="#au"/><use transform="matrix(0.06234567901234567,0,0,0.06234567901234567,104.67839506172837,0)" xlink:href="#aO"/><use transform="matrix(0.06234567901234567,0,0,0.06234567901234567,117.1475308641975,0)" xlink:href="#aM"/><use transform="matrix(0.06234567901234567,0,0,0.06234567901234567,129.61666666666665,0)" xlink:href="#au"/><use transform="matrix(0.06234567901234567,0,0,0.06234567901234567,142.08580246913579,0)" xlink:href="#aD"/><use transform="matrix(0.06234567901234567,0,0,0.06234567901234567,148.32037037037034,0)" xlink:href="#as"/><use transform="matrix(0.06234567901234567,0,0,0.06234567901234567,153.24567901234565,0)" xlink:href="#aU"/><use transform="matrix(0.06234567901234567,0,0,0.06234567901234567,165.7148148148148,0)" xlink:href="#aI"/></g><g id="E"><use transform="matrix(0.06234567901234567,0,0,0.06234567901234567,0,0)" xlink:href="#ay"/><use transform="matrix(0.06234567901234567,0,0,0.06234567901234567,16.147530864197527,0)" xlink:href="#au"/><use transform="matrix(0.06234567901234567,0,0,0.06234567901234567,28.61666666666666,0)" xlink:href="#aD"/><use transform="matrix(0.06234567901234567,0,0,0.06234567901234567,34.85123456790123,0)" xlink:href="#aw"/></g><path fill="#282c33" d="M141 0L90-78 38 0H4l68-98-65-92h35l48 74 47-74h35l-64 92 68 98h-35" id="bm"/><g id="F"><use transform="matrix(0.06234567901234567,0,0,0.06234567901234567,0,0)" xlink:href="#aA"/><use transform="matrix(0.06234567901234567,0,0,0.06234567901234567,12.469135802469133,0)" xlink:href="#aM"/><use transform="matrix(0.06234567901234567,0,0,0.06234567901234567,24.938271604938265,0)" xlink:href="#aN"/><use transform="matrix(0.06234567901234567,0,0,0.06234567901234567,36.16049382716049,0)" xlink:href="#as"/><use transform="matrix(0.06234567901234567,0,0,0.06234567901234567,41.08580246913579,0)" xlink:href="#aI"/><use transform="matrix(0.06234567901234567,0,0,0.06234567901234567,53.554938271604925,0)" xlink:href="#aw"/><use transform="matrix(0.06234567901234567,0,0,0.06234567901234567,66.02407407407406,0)" xlink:href="#aN"/><use transform="matrix(0.06234567901234567,0,0,0.06234567901234567,77.24629629629628,0)" xlink:href="#aN"/><use transform="matrix(0.06234567901234567,0,0,0.06234567901234567,88.4685185185185,0)" xlink:href="#bk"/><use transform="matrix(0.06234567901234567,0,0,0.06234567901234567,103.43148148148146,0)" xlink:href="#bm"/><use transform="matrix(0.06234567901234567,0,0,0.06234567901234567,114.65370370370367,0)" xlink:href="#aS"/><use transform="matrix(0.06234567901234567,0,0,0.06234567901234567,127.1228395061728,0)" xlink:href="#aw"/><use transform="matrix(0.06234567901234567,0,0,0.06234567901234567,139.59197530864193,0)" xlink:href="#aH"/><use transform="matrix(0.06234567901234567,0,0,0.06234567901234567,147.01111111111106,0)" xlink:href="#as"/><use transform="matrix(0.06234567901234567,0,0,0.06234567901234567,151.93641975308637,0)" xlink:href="#aw"/><use transform="matrix(0.06234567901234567,0,0,0.06234567901234567,164.4055555555555,0)" xlink:href="#aI"/><use transform="matrix(0.06234567901234567,0,0,0.06234567901234567,176.87469135802465,0)" xlink:href="#aC"/><use transform="matrix(0.06234567901234567,0,0,0.06234567901234567,188.09691358024688,0)" xlink:href="#aw"/></g><g id="G"><use transform="matrix(0.06234567901234567,0,0,0.06234567901234567,0,0)" xlink:href="#aQ"/><use transform="matrix(0.06234567901234567,0,0,0.06234567901234567,12.469135802469133,0)" xlink:href="#as"/><use transform="matrix(0.06234567901234567,0,0,0.06234567901234567,17.39444444444444,0)" xlink:href="#aN"/><use transform="matrix(0.06234567901234567,0,0,0.06234567901234567,28.61666666666666,0)" xlink:href="#aD"/><use transform="matrix(0.06234567901234567,0,0,0.06234567901234567,34.85123456790123,0)" xlink:href="#bc"/><use transform="matrix(0.06234567901234567,0,0,0.06234567901234567,47.94382716049382,0)" xlink:href="#aG"/><use transform="matrix(0.06234567901234567,0,0,0.06234567901234567,62.90679012345678,0)" xlink:href="#aD"/><use transform="matrix(0.06234567901234567,0,0,0.06234567901234567,69.14135802469134,0)" xlink:href="#aH"/><use transform="matrix(0.06234567901234567,0,0,0.06234567901234567,76.56049382716047,0)" xlink:href="#as"/><use transform="matrix(0.06234567901234567,0,0,0.06234567901234567,81.48580246913578,0)" xlink:href="#aI"/><use transform="matrix(0.06234567901234567,0,0,0.06234567901234567,93.9549382716049,0)" xlink:href="#av"/><use transform="matrix(0.06234567901234567,0,0,0.06234567901234567,106.42407407407404,0)" xlink:href="#bd"/></g><path fill="#282c33" d="M232-93c-1 65-40 97-104 97C67 4 28-28 28-90v-158h33c8 89-33 224 67 224 102 0 64-133 71-224h33v155" id="bn"/><path fill="#282c33" d="M233-177c-1 41-23 64-60 70L243 0h-38l-65-103H63V0H30v-248c88 3 205-21 203 71zM63-129c60-2 137 13 137-47 0-61-80-42-137-45v92" id="bo"/><g id="H"><use transform="matrix(0.06234567901234567,0,0,0.06234567901234567,0,0)" xlink:href="#av"/><use transform="matrix(0.06234567901234567,0,0,0.06234567901234567,12.469135802469133,0)" xlink:href="#as"/><use transform="matrix(0.06234567901234567,0,0,0.06234567901234567,17.39444444444444,0)" xlink:href="#aD"/><use transform="matrix(0.06234567901234567,0,0,0.06234567901234567,23.629012345679005,0)" xlink:href="#aF"/><use transform="matrix(0.06234567901234567,0,0,0.06234567901234567,36.09814814814814,0)" xlink:href="#aM"/><use transform="matrix(0.06234567901234567,0,0,0.06234567901234567,48.56728395061727,0)" xlink:href="#aA"/><use transform="matrix(0.06234567901234567,0,0,0.06234567901234567,61.036419753086406,0)" xlink:href="#bn"/><use transform="matrix(0.06234567901234567,0,0,0.06234567901234567,77.18395061728393,0)" xlink:href="#bo"/><use transform="matrix(0.06234567901234567,0,0,0.06234567901234567,93.33148148148146,0)" xlink:href="#aQ"/></g><g id="I"><use transform="matrix(0.06234567901234567,0,0,0.06234567901234567,0,0)" xlink:href="#av"/><use transform="matrix(0.06234567901234567,0,0,0.06234567901234567,12.469135802469133,0)" xlink:href="#as"/><use transform="matrix(0.06234567901234567,0,0,0.06234567901234567,17.39444444444444,0)" xlink:href="#aD"/><use transform="matrix(0.06234567901234567,0,0,0.06234567901234567,23.629012345679005,0)" xlink:href="#aF"/><use transform="matrix(0.06234567901234567,0,0,0.06234567901234567,36.09814814814814,0)" xlink:href="#aM"/><use transform="matrix(0.06234567901234567,0,0,0.06234567901234567,48.56728395061727,0)" xlink:href="#aA"/><use transform="matrix(0.06234567901234567,0,0,0.06234567901234567,61.036419753086406,0)" xlink:href="#aG"/><use transform="matrix(0.06234567901234567,0,0,0.06234567901234567,75.99938271604937,0)" xlink:href="#aC"/><use transform="matrix(0.06234567901234567,0,0,0.06234567901234567,87.22160493827158,0)" xlink:href="#aU"/><use transform="matrix(0.06234567901234567,0,0,0.06234567901234567,99.69074074074072,0)" xlink:href="#aH"/><use transform="matrix(0.06234567901234567,0,0,0.06234567901234567,107.10987654320985,0)" xlink:href="#aw"/></g><g id="J"><use transform="matrix(0.06234567901234567,0,0,0.06234567901234567,0,0)" xlink:href="#aO"/><use transform="matrix(0.06234567901234567,0,0,0.06234567901234567,12.469135802469133,0)" xlink:href="#aU"/><use transform="matrix(0.06234567901234567,0,0,0.06234567901234567,24.938271604938265,0)" xlink:href="#aM"/><use transform="matrix(0.06234567901234567,0,0,0.06234567901234567,37.4074074074074,0)" xlink:href="#aA"/><use transform="matrix(0.06234567901234567,0,0,0.06234567901234567,49.87654320987653,0)" xlink:href="#aR"/><use transform="matrix(0.06234567901234567,0,0,0.06234567901234567,54.801851851851836,0)" xlink:href="#aw"/></g><path fill="#282c33" d="M143 0L79-87 56-68V0H24v-261h32v163l83-92h37l-77 82L181 0h-38" id="bp"/><g id="K"><use transform="matrix(0.06234567901234567,0,0,0.06234567901234567,0,0)" xlink:href="#aN"/><use transform="matrix(0.06234567901234567,0,0,0.06234567901234567,11.22222222222222,0)" xlink:href="#bp"/><use transform="matrix(0.06234567901234567,0,0,0.06234567901234567,22.44444444444444,0)" xlink:href="#as"/><use transform="matrix(0.06234567901234567,0,0,0.06234567901234567,27.36975308641975,0)" xlink:href="#aR"/><use transform="matrix(0.06234567901234567,0,0,0.06234567901234567,32.295061728395055,0)" xlink:href="#aR"/><use transform="matrix(0.06234567901234567,0,0,0.06234567901234567,37.22037037037036,0)" xlink:href="#aN"/></g><g id="L"><use transform="matrix(0.06234567901234567,0,0,0.06234567901234567,0,0)" xlink:href="#aC"/><use transform="matrix(0.06234567901234567,0,0,0.06234567901234567,11.22222222222222,0)" xlink:href="#aw"/><use transform="matrix(0.06234567901234567,0,0,0.06234567901234567,23.691358024691354,0)" xlink:href="#aH"/><use transform="matrix(0.06234567901234567,0,0,0.06234567901234567,31.11049382716049,0)" xlink:href="#aD"/><use transform="matrix(0.06234567901234567,0,0,0.06234567901234567,37.34506172839505,0)" xlink:href="#as"/><use transform="matrix(0.06234567901234567,0,0,0.06234567901234567,42.27037037037036,0)" xlink:href="#aV"/><use transform="matrix(0.06234567901234567,0,0,0.06234567901234567,48.50493827160493,0)" xlink:href="#as"/><use transform="matrix(0.06234567901234567,0,0,0.06234567901234567,53.430246913580234,0)" xlink:href="#aC"/><use transform="matrix(0.06234567901234567,0,0,0.06234567901234567,64.65246913580245,0)" xlink:href="#au"/><use transform="matrix(0.06234567901234567,0,0,0.06234567901234567,77.12160493827159,0)" xlink:href="#aD"/><use transform="matrix(0.06234567901234567,0,0,0.06234567901234567,83.35617283950616,0)" xlink:href="#aw"/><use transform="matrix(0.06234567901234567,0,0,0.06234567901234567,95.82530864197528,0)" xlink:href="#aN"/></g><g id="M"><use transform="matrix(0.06234567901234567,0,0,0.06234567901234567,0,0)" xlink:href="#aR"/><use transform="matrix(0.06234567901234567,0,0,0.06234567901234567,4.925308641975308,0)" xlink:href="#au"/><use transform="matrix(0.06234567901234567,0,0,0.06234567901234567,17.39444444444444,0)" xlink:href="#aI"/><use transform="matrix(0.06234567901234567,0,0,0.06234567901234567,29.86358024691357,0)" xlink:href="#av"/><use transform="matrix(0.06234567901234567,0,0,0.06234567901234567,42.332716049382704,0)" xlink:href="#aM"/><use transform="matrix(0.06234567901234567,0,0,0.06234567901234567,54.801851851851836,0)" xlink:href="#au"/><use transform="matrix(0.06234567901234567,0,0,0.06234567901234567,67.27098765432098,0)" xlink:href="#av"/><use transform="matrix(0.06234567901234567,0,0,0.06234567901234567,79.74012345679012,0)" xlink:href="#aw"/><use transform="matrix(0.06234567901234567,0,0,0.06234567901234567,92.20925925925926,0)" xlink:href="#aN"/></g><path fill="#282c33" d="M127-220V0H93v-220H8v-28h204v28h-85" id="bq"/><path fill="#282c33" d="M212-179c-10-28-35-45-73-45-59 0-87 40-87 99 0 60 29 101 89 101 43 0 62-24 78-52l27 14C228-24 195 4 139 4 59 4 22-46 18-125c-6-104 99-153 187-111 19 9 31 26 39 46" id="br"/><path fill="#282c33" d="M137 0h-34L2-248h35l83 218 83-218h36" id="bs"/><g id="N"><use transform="matrix(0.06234567901234567,0,0,0.06234567901234567,0,0)" xlink:href="#aS"/><use transform="matrix(0.06234567901234567,0,0,0.06234567901234567,12.469135802469133,0)" xlink:href="#au"/><use transform="matrix(0.06234567901234567,0,0,0.06234567901234567,24.938271604938265,0)" xlink:href="#aD"/><use transform="matrix(0.06234567901234567,0,0,0.06234567901234567,31.17283950617283,0)" xlink:href="#aF"/><use transform="matrix(0.06234567901234567,0,0,0.06234567901234567,43.64197530864196,0)" xlink:href="#bq"/><use transform="matrix(0.06234567901234567,0,0,0.06234567901234567,54.801851851851836,0)" xlink:href="#aU"/><use transform="matrix(0.06234567901234567,0,0,0.06234567901234567,67.27098765432098,0)" xlink:href="#br"/><use transform="matrix(0.06234567901234567,0,0,0.06234567901234567,83.41851851851851,0)" xlink:href="#bs"/></g><path fill="#282c33" d="M88-194c31-1 46 15 58 34l-1-101h50l1 261h-48c-2-10 0-23-3-31C134-8 116 4 84 4 32 4 16-41 15-95c0-56 19-97 73-99zm17 164c33 0 40-30 41-66 1-37-9-64-41-64s-38 30-39 65c0 43 13 65 39 65" id="bt"/><path fill="#282c33" d="M128 0H69L1-190h53L99-40l48-150h52" id="bu"/><g id="O"><use transform="matrix(0.06234567901234567,0,0,0.06234567901234567,0,0)" xlink:href="#be"/><use transform="matrix(0.06234567901234567,0,0,0.06234567901234567,16.147530864197527,0)" xlink:href="#bt"/><use transform="matrix(0.06234567901234567,0,0,0.06234567901234567,29.80123456790123,0)" xlink:href="#bu"/><use transform="matrix(0.06234567901234567,0,0,0.06234567901234567,42.27037037037036,0)" xlink:href="#ar"/><use transform="matrix(0.06234567901234567,0,0,0.06234567901234567,54.73950617283949,0)" xlink:href="#aL"/><use transform="matrix(0.06234567901234567,0,0,0.06234567901234567,63.46790123456788,0)" xlink:href="#bi"/></g><g id="P"><use transform="matrix(0.06234567901234567,0,0,0.06234567901234567,0,0)" xlink:href="#aC"/><use transform="matrix(0.06234567901234567,0,0,0.06234567901234567,11.22222222222222,0)" xlink:href="#aU"/><use transform="matrix(0.06234567901234567,0,0,0.06234567901234567,23.691358024691354,0)" xlink:href="#at"/><use transform="matrix(0.06234567901234567,0,0,0.06234567901234567,42.33271604938271,0)" xlink:href="#aS"/><use transform="matrix(0.06234567901234567,0,0,0.06234567901234567,54.80185185185184,0)" xlink:href="#au"/><use transform="matrix(0.06234567901234567,0,0,0.06234567901234567,67.27098765432098,0)" xlink:href="#aI"/><use transform="matrix(0.06234567901234567,0,0,0.06234567901234567,79.74012345679012,0)" xlink:href="#bb"/><use transform="matrix(0.06234567901234567,0,0,0.06234567901234567,90.96234567901233,0)" xlink:href="#ax"/><use transform="matrix(0.06234567901234567,0,0,0.06234567901234567,97.1969135802469,0)" xlink:href="#ay"/></g><g id="Q"><use transform="matrix(0.06234567901234567,0,0,0.06234567901234567,0,0)" xlink:href="#aS"/><use transform="matrix(0.06234567901234567,0,0,0.06234567901234567,12.469135802469133,0)" xlink:href="#aU"/><use transform="matrix(0.06234567901234567,0,0,0.06234567901234567,24.938271604938265,0)" xlink:href="#aN"/><use transform="matrix(0.06234567901234567,0,0,0.06234567901234567,36.16049382716049,0)" xlink:href="#as"/><use transform="matrix(0.06234567901234567,0,0,0.06234567901234567,41.08580246913579,0)" xlink:href="#aD"/><use transform="matrix(0.06234567901234567,0,0,0.06234567901234567,47.320370370370355,0)" xlink:href="#as"/><use transform="matrix(0.06234567901234567,0,0,0.06234567901234567,52.24567901234566,0)" xlink:href="#aU"/><use transform="matrix(0.06234567901234567,0,0,0.06234567901234567,64.71481481481479,0)" xlink:href="#aI"/></g><g id="R"><use transform="matrix(0.06234567901234567,0,0,0.06234567901234567,0,0)" xlink:href="#aF"/><use transform="matrix(0.06234567901234567,0,0,0.06234567901234567,12.469135802469133,0)" xlink:href="#aw"/><use transform="matrix(0.06234567901234567,0,0,0.06234567901234567,24.938271604938265,0)" xlink:href="#au"/><use transform="matrix(0.06234567901234567,0,0,0.06234567901234567,37.4074074074074,0)" xlink:href="#aO"/><use transform="matrix(0.06234567901234567,0,0,0.06234567901234567,49.87654320987653,0)" xlink:href="#aw"/><use transform="matrix(0.06234567901234567,0,0,0.06234567901234567,62.34567901234566,0)" xlink:href="#aH"/></g><g id="S"><use transform="matrix(0.06234567901234567,0,0,0.06234567901234567,0,0)" xlink:href="#as"/><use transform="matrix(0.06234567901234567,0,0,0.06234567901234567,4.925308641975308,0)" xlink:href="#aI"/><use transform="matrix(0.06234567901234567,0,0,0.06234567901234567,17.39444444444444,0)" xlink:href="#aV"/><use transform="matrix(0.06234567901234567,0,0,0.06234567901234567,23.629012345679005,0)" xlink:href="#aU"/><use transform="matrix(0.06234567901234567,0,0,0.06234567901234567,36.09814814814814,0)" xlink:href="#aH"/><use transform="matrix(0.06234567901234567,0,0,0.06234567901234567,43.517283950617276,0)" xlink:href="#at"/><use transform="matrix(0.06234567901234567,0,0,0.06234567901234567,62.158641975308626,0)" xlink:href="#au"/><use transform="matrix(0.06234567901234567,0,0,0.06234567901234567,74.62777777777777,0)" xlink:href="#aD"/><use transform="matrix(0.06234567901234567,0,0,0.06234567901234567,80.86234567901234,0)" xlink:href="#as"/><use transform="matrix(0.06234567901234567,0,0,0.06234567901234567,85.78765432098764,0)" xlink:href="#aU"/><use transform="matrix(0.06234567901234567,0,0,0.06234567901234567,98.25679012345677,0)" xlink:href="#aI"/></g><g id="T"><use transform="matrix(0.06234567901234567,0,0,0.06234567901234567,0,0)" xlink:href="#aM"/><use transform="matrix(0.06234567901234567,0,0,0.06234567901234567,12.469135802469133,0)" xlink:href="#aS"/><use transform="matrix(0.06234567901234567,0,0,0.06234567901234567,24.938271604938265,0)" xlink:href="#aR"/><use transform="matrix(0.06234567901234567,0,0,0.06234567901234567,29.86358024691357,0)" xlink:href="#aU"/><use transform="matrix(0.06234567901234567,0,0,0.06234567901234567,42.332716049382704,0)" xlink:href="#au"/><use transform="matrix(0.06234567901234567,0,0,0.06234567901234567,54.801851851851836,0)" xlink:href="#aO"/><use transform="matrix(0.06234567901234567,0,0,0.06234567901234567,67.27098765432098,0)" xlink:href="#ay"/><use transform="matrix(0.06234567901234567,0,0,0.06234567901234567,83.41851851851851,0)" xlink:href="#au"/><use transform="matrix(0.06234567901234567,0,0,0.06234567901234567,95.88765432098765,0)" xlink:href="#aD"/><use transform="matrix(0.06234567901234567,0,0,0.06234567901234567,102.12222222222222,0)" xlink:href="#aw"/></g><path fill="#282c33" d="M231 0h-52l-39-155L100 0H48L-1-190h46L77-45c9-52 24-97 36-145h53l37 145 32-145h46" id="bv"/><g id="U"><use transform="matrix(0.06234567901234567,0,0,0.06234567901234567,0,0)" xlink:href="#an"/><use transform="matrix(0.06234567901234567,0,0,0.06234567901234567,6.234567901234566,0)" xlink:href="#aZ"/><use transform="matrix(0.06234567901234567,0,0,0.06234567901234567,19.888271604938268,0)" xlink:href="#bi"/><use transform="matrix(0.06234567901234567,0,0,0.06234567901234567,27.307407407407403,0)" xlink:href="#ar"/><use transform="matrix(0.06234567901234567,0,0,0.06234567901234567,39.776543209876536,0)" xlink:href="#aL"/><use transform="matrix(0.06234567901234567,0,0,0.06234567901234567,48.50493827160493,0)" xlink:href="#bu"/><use transform="matrix(0.06234567901234567,0,0,0.06234567901234567,60.97407407407406,0)" xlink:href="#bg"/><use transform="matrix(0.06234567901234567,0,0,0.06234567901234567,67.20864197530862,0)" xlink:href="#ar"/><use transform="matrix(0.06234567901234567,0,0,0.06234567901234567,79.67777777777775,0)" xlink:href="#bv"/></g><g id="V"><use transform="matrix(0.06234567901234567,0,0,0.06234567901234567,0,0)" xlink:href="#aw"/><use transform="matrix(0.06234567901234567,0,0,0.06234567901234567,12.469135802469133,0)" xlink:href="#bj"/><use transform="matrix(0.06234567901234567,0,0,0.06234567901234567,23.691358024691354,0)" xlink:href="#aw"/><use transform="matrix(0.06234567901234567,0,0,0.06234567901234567,36.16049382716049,0)" xlink:href="#aI"/><use transform="matrix(0.06234567901234567,0,0,0.06234567901234567,48.62962962962962,0)" xlink:href="#aD"/><use transform="matrix(0.06234567901234567,0,0,0.06234567901234567,54.86419753086419,0)" xlink:href="#ax"/><use transform="matrix(0.06234567901234567,0,0,0.06234567901234567,61.09876543209876,0)" xlink:href="#ay"/></g><g id="W"><use transform="matrix(0.06234567901234567,0,0,0.06234567901234567,0,0)" xlink:href="#aO"/><use transform="matrix(0.06234567901234567,0,0,0.06234567901234567,12.469135802469133,0)" xlink:href="#au"/><use transform="matrix(0.06234567901234567,0,0,0.06234567901234567,24.938271604938265,0)" xlink:href="#aD"/><use transform="matrix(0.06234567901234567,0,0,0.06234567901234567,31.17283950617283,0)" xlink:href="#aw"/></g><path fill="#282c33" d="M140-251c80 0 125 45 125 126 0 70-33 111-92 124 6 28 34 38 68 31l-1 36C177 83 129 55 120 2 51-6 15-50 15-125c0-81 44-126 125-126zm-1 214c52 0 73-35 73-88 0-50-21-86-72-86-52 0-73 35-73 86s22 88 72 88" id="bw"/><path fill="#282c33" d="M85 4C-2 5 27-109 22-190h50c7 57-23 150 33 157 60-5 35-97 40-157h50l1 190h-47c-2-12 1-28-3-38-12 25-28 42-61 42" id="bx"/><path fill="#282c33" d="M12 0v-35l95-120H19v-35h142v35L67-36h103V0H12" id="by"/><g id="X"><use transform="matrix(0.06234567901234567,0,0,0.06234567901234567,0,0)" xlink:href="#bw"/><use transform="matrix(0.06234567901234567,0,0,0.06234567901234567,17.456790123456788,0)" xlink:href="#bx"/><use transform="matrix(0.06234567901234567,0,0,0.06234567901234567,31.11049382716049,0)" xlink:href="#bg"/><use transform="matrix(0.06234567901234567,0,0,0.06234567901234567,37.34506172839505,0)" xlink:href="#by"/></g><path fill="#282c33" d="M145-31C134-9 116 4 85 4 32 4 16-35 15-94c0-59 17-99 70-100 32-1 48 14 60 33 0-11-1-24 2-32h30l-1 268h-32zM93-21c41 0 51-33 51-76s-8-73-50-73c-40 0-46 35-46 75s5 74 45 74" id="bz"/><path fill="#282c33" d="M9 0v-24l116-142H16v-24h144v24L44-24h123V0H9" id="bA"/><g id="Y"><use transform="matrix(0.06234567901234567,0,0,0.06234567901234567,0,0)" xlink:href="#bz"/><use transform="matrix(0.06234567901234567,0,0,0.06234567901234567,12.469135802469133,0)" xlink:href="#aM"/><use transform="matrix(0.06234567901234567,0,0,0.06234567901234567,24.938271604938265,0)" xlink:href="#as"/><use transform="matrix(0.06234567901234567,0,0,0.06234567901234567,29.86358024691357,0)" xlink:href="#bA"/><use transform="matrix(0.06234567901234567,0,0,0.06234567901234567,41.08580246913579,0)" xlink:href="#ax"/><use transform="matrix(0.06234567901234567,0,0,0.06234567901234567,47.320370370370355,0)" xlink:href="#ay"/></g><g id="Z"><use transform="matrix(0.06234567901234567,0,0,0.06234567901234567,0,0)" xlink:href="#aN"/><use transform="matrix(0.06234567901234567,0,0,0.06234567901234567,11.22222222222222,0)" xlink:href="#aD"/><use transform="matrix(0.06234567901234567,0,0,0.06234567901234567,17.456790123456784,0)" xlink:href="#au"/><use transform="matrix(0.06234567901234567,0,0,0.06234567901234567,29.925925925925917,0)" xlink:href="#aH"/><use transform="matrix(0.06234567901234567,0,0,0.06234567901234567,37.34506172839505,0)" xlink:href="#aD"/><use transform="matrix(0.06234567901234567,0,0,0.06234567901234567,43.57962962962962,0)" xlink:href="#ay"/><use transform="matrix(0.06234567901234567,0,0,0.06234567901234567,59.72716049382715,0)" xlink:href="#au"/><use transform="matrix(0.06234567901234567,0,0,0.06234567901234567,72.19629629629628,0)" xlink:href="#aD"/><use transform="matrix(0.06234567901234567,0,0,0.06234567901234567,78.43086419753085,0)" xlink:href="#aw"/></g><g id="aa"><use transform="matrix(0.06234567901234567,0,0,0.06234567901234567,0,0)" xlink:href="#aw"/><use transform="matrix(0.06234567901234567,0,0,0.06234567901234567,12.469135802469133,0)" xlink:href="#aI"/><use transform="matrix(0.06234567901234567,0,0,0.06234567901234567,24.938271604938265,0)" xlink:href="#aO"/><use transform="matrix(0.06234567901234567,0,0,0.06234567901234567,37.4074074074074,0)" xlink:href="#ay"/><use transform="matrix(0.06234567901234567,0,0,0.06234567901234567,53.554938271604925,0)" xlink:href="#au"/><use transform="matrix(0.06234567901234567,0,0,0.06234567901234567,66.02407407407406,0)" xlink:href="#aD"/><use transform="matrix(0.06234567901234567,0,0,0.06234567901234567,72.25864197530863,0)" xlink:href="#aw"/></g><g id="ab"><use transform="matrix(0.06234567901234567,0,0,0.06234567901234567,0,0)" xlink:href="#bw"/><use transform="matrix(0.06234567901234567,0,0,0.06234567901234567,17.456790123456788,0)" xlink:href="#bx"/><use transform="matrix(0.06234567901234567,0,0,0.06234567901234567,31.11049382716049,0)" xlink:href="#ar"/><use transform="matrix(0.06234567901234567,0,0,0.06234567901234567,43.57962962962962,0)" xlink:href="#aK"/><use transform="matrix(0.06234567901234567,0,0,0.06234567901234567,56.048765432098755,0)" xlink:href="#bi"/><use transform="matrix(0.06234567901234567,0,0,0.06234567901234567,63.46790123456789,0)" xlink:href="#bg"/><use transform="matrix(0.06234567901234567,0,0,0.06234567901234567,69.70246913580246,0)" xlink:href="#aX"/><use transform="matrix(0.06234567901234567,0,0,0.06234567901234567,83.35617283950616,0)" xlink:href="#aZ"/><use transform="matrix(0.06234567901234567,0,0,0.06234567901234567,97.00987654320986,0)" xlink:href="#be"/><use transform="matrix(0.06234567901234567,0,0,0.06234567901234567,113.15740740740739,0)" xlink:href="#aZ"/><use transform="matrix(0.06234567901234567,0,0,0.06234567901234567,126.81111111111109,0)" xlink:href="#aK"/><use transform="matrix(0.06234567901234567,0,0,0.06234567901234567,139.2802469135802,0)" xlink:href="#bv"/><use transform="matrix(0.06234567901234567,0,0,0.06234567901234567,156.737037037037,0)" xlink:href="#ar"/><use transform="matrix(0.06234567901234567,0,0,0.06234567901234567,169.20617283950614,0)" xlink:href="#aL"/></g><g id="ac"><use transform="matrix(0.06234567901234567,0,0,0.06234567901234567,0,0)" xlink:href="#bz"/><use transform="matrix(0.06234567901234567,0,0,0.06234567901234567,12.469135802469133,0)" xlink:href="#aM"/><use transform="matrix(0.06234567901234567,0,0,0.06234567901234567,24.938271604938265,0)" xlink:href="#aw"/><use transform="matrix(0.06234567901234567,0,0,0.06234567901234567,37.4074074074074,0)" xlink:href="#aN"/><use transform="matrix(0.06234567901234567,0,0,0.06234567901234567,48.62962962962962,0)" xlink:href="#aD"/><use transform="matrix(0.06234567901234567,0,0,0.06234567901234567,54.86419753086419,0)" xlink:href="#as"/><use transform="matrix(0.06234567901234567,0,0,0.06234567901234567,59.789506172839495,0)" xlink:href="#aU"/><use transform="matrix(0.06234567901234567,0,0,0.06234567901234567,72.25864197530862,0)" xlink:href="#aI"/><use transform="matrix(0.06234567901234567,0,0,0.06234567901234567,84.72777777777776,0)" xlink:href="#ax"/><use transform="matrix(0.06234567901234567,0,0,0.06234567901234567,90.96234567901233,0)" xlink:href="#ay"/></g><g id="ad"><use transform="matrix(0.06234567901234567,0,0,0.06234567901234567,0,0)" xlink:href="#aD"/><use transform="matrix(0.06234567901234567,0,0,0.06234567901234567,6.234567901234566,0)" xlink:href="#bb"/><use transform="matrix(0.06234567901234567,0,0,0.06234567901234567,17.456790123456784,0)" xlink:href="#aS"/><use transform="matrix(0.06234567901234567,0,0,0.06234567901234567,29.925925925925917,0)" xlink:href="#aw"/></g><path fill="#282c33" d="M205 0l-28-72H64L36 0H1l101-248h38L239 0h-34zm-38-99l-47-123c-12 45-31 82-46 123h93" id="bB"/><g id="ae"><use transform="matrix(0.06234567901234567,0,0,0.06234567901234567,0,0)" xlink:href="#bz"/><use transform="matrix(0.06234567901234567,0,0,0.06234567901234567,12.469135802469133,0)" xlink:href="#aM"/><use transform="matrix(0.06234567901234567,0,0,0.06234567901234567,24.938271604938265,0)" xlink:href="#aw"/><use transform="matrix(0.06234567901234567,0,0,0.06234567901234567,37.4074074074074,0)" xlink:href="#aN"/><use transform="matrix(0.06234567901234567,0,0,0.06234567901234567,48.62962962962962,0)" xlink:href="#aD"/><use transform="matrix(0.06234567901234567,0,0,0.06234567901234567,54.86419753086419,0)" xlink:href="#as"/><use transform="matrix(0.06234567901234567,0,0,0.06234567901234567,59.789506172839495,0)" xlink:href="#aU"/><use transform="matrix(0.06234567901234567,0,0,0.06234567901234567,72.25864197530862,0)" xlink:href="#aI"/><use transform="matrix(0.06234567901234567,0,0,0.06234567901234567,84.72777777777776,0)" xlink:href="#bB"/><use transform="matrix(0.06234567901234567,0,0,0.06234567901234567,99.69074074074072,0)" xlink:href="#aI"/><use transform="matrix(0.06234567901234567,0,0,0.06234567901234567,112.15987654320986,0)" xlink:href="#aN"/><use transform="matrix(0.06234567901234567,0,0,0.06234567901234567,123.38209876543208,0)" xlink:href="#aT"/><use transform="matrix(0.06234567901234567,0,0,0.06234567901234567,139.5296296296296,0)" xlink:href="#aw"/><use transform="matrix(0.06234567901234567,0,0,0.06234567901234567,151.99876543209874,0)" xlink:href="#aH"/></g><g id="af"><use transform="matrix(0.06234567901234567,0,0,0.06234567901234567,0,0)" xlink:href="#az"/><use transform="matrix(0.06234567901234567,0,0,0.06234567901234567,17.456790123456788,0)" xlink:href="#aA"/><use transform="matrix(0.06234567901234567,0,0,0.06234567901234567,29.92592592592592,0)" xlink:href="#aB"/><use transform="matrix(0.06234567901234567,0,0,0.06234567901234567,34.85123456790123,0)" xlink:href="#aw"/><use transform="matrix(0.06234567901234567,0,0,0.06234567901234567,47.32037037037036,0)" xlink:href="#aC"/><use transform="matrix(0.06234567901234567,0,0,0.06234567901234567,58.542592592592584,0)" xlink:href="#aD"/></g><path fill="#282c33" d="M87 75C49 33 22-17 22-94c0-76 28-126 65-167h31c-38 41-64 92-64 168S80 34 118 75H87" id="bC"/><path fill="#282c33" d="M153-248C145-148 188 4 80 4 36 3 13-21 6-62l32-5c4 25 16 42 43 43 27 0 39-20 39-49v-147H72v-28h81" id="bD"/><path fill="#282c33" d="M33-261c38 41 65 92 65 168S71 34 33 75H2C39 34 66-17 66-93S39-220 2-261h31" id="bE"/><g id="ag"><use transform="matrix(0.06234567901234567,0,0,0.06234567901234567,0,0)" xlink:href="#bC"/><use transform="matrix(0.06234567901234567,0,0,0.06234567901234567,7.4191358024691345,0)" xlink:href="#bD"/><use transform="matrix(0.06234567901234567,0,0,0.06234567901234567,18.641358024691353,0)" xlink:href="#aG"/><use transform="matrix(0.06234567901234567,0,0,0.06234567901234567,33.60432098765431,0)" xlink:href="#az"/><use transform="matrix(0.06234567901234567,0,0,0.06234567901234567,51.0611111111111,0)" xlink:href="#aP"/><use transform="matrix(0.06234567901234567,0,0,0.06234567901234567,67.20864197530864,0)" xlink:href="#bE"/></g><path fill="#282c33" d="M169-182c-1-43-94-46-97-3 18 66 151 10 154 114 3 95-165 93-204 36-6-8-10-19-12-30l50-8c3 46 112 56 116 5-17-69-150-10-154-114-4-87 153-88 188-35 5 8 8 18 10 28" id="bF"/><g id="ah"><use transform="matrix(0.06234567901234567,0,0,0.06234567901234567,0,0)" xlink:href="#bF"/><use transform="matrix(0.06234567901234567,0,0,0.06234567901234567,14.96296296296296,0)" xlink:href="#aX"/><use transform="matrix(0.06234567901234567,0,0,0.06234567901234567,28.61666666666666,0)" xlink:href="#bf"/><use transform="matrix(0.06234567901234567,0,0,0.06234567901234567,34.85123456790123,0)" xlink:href="#bx"/><use transform="matrix(0.06234567901234567,0,0,0.06234567901234567,48.50493827160493,0)" xlink:href="#bi"/><use transform="matrix(0.06234567901234567,0,0,0.06234567901234567,55.92407407407406,0)" xlink:href="#bg"/><use transform="matrix(0.06234567901234567,0,0,0.06234567901234567,62.158641975308626,0)" xlink:href="#aX"/><use transform="matrix(0.06234567901234567,0,0,0.06234567901234567,75.81234567901232,0)" xlink:href="#aZ"/></g><g id="ai"><use transform="matrix(0.06234567901234567,0,0,0.06234567901234567,0,0)" xlink:href="#aN"/><use transform="matrix(0.06234567901234567,0,0,0.06234567901234567,11.22222222222222,0)" xlink:href="#aU"/><use transform="matrix(0.06234567901234567,0,0,0.06234567901234567,23.691358024691354,0)" xlink:href="#aR"/><use transform="matrix(0.06234567901234567,0,0,0.06234567901234567,28.61666666666666,0)" xlink:href="#aM"/><use transform="matrix(0.06234567901234567,0,0,0.06234567901234567,41.08580246913579,0)" xlink:href="#aD"/><use transform="matrix(0.06234567901234567,0,0,0.06234567901234567,47.320370370370355,0)" xlink:href="#as"/><use transform="matrix(0.06234567901234567,0,0,0.06234567901234567,52.24567901234566,0)" xlink:href="#aU"/><use transform="matrix(0.06234567901234567,0,0,0.06234567901234567,64.71481481481479,0)" xlink:href="#aI"/><use transform="matrix(0.06234567901234567,0,0,0.06234567901234567,77.18395061728393,0)" xlink:href="#ax"/><use transform="matrix(0.06234567901234567,0,0,0.06234567901234567,83.4185185185185,0)" xlink:href="#ay"/></g><g id="aj"><use transform="matrix(0.06234567901234567,0,0,0.06234567901234567,0,0)" xlink:href="#aN"/><use transform="matrix(0.06234567901234567,0,0,0.06234567901234567,11.22222222222222,0)" xlink:href="#aC"/><use transform="matrix(0.06234567901234567,0,0,0.06234567901234567,22.44444444444444,0)" xlink:href="#aU"/><use transform="matrix(0.06234567901234567,0,0,0.06234567901234567,34.91358024691357,0)" xlink:href="#aH"/><use transform="matrix(0.06234567901234567,0,0,0.06234567901234567,42.332716049382704,0)" xlink:href="#aw"/></g><g id="ak"><use transform="matrix(0.06234567901234567,0,0,0.06234567901234567,0,0)" xlink:href="#be"/><use transform="matrix(0.06234567901234567,0,0,0.06234567901234567,16.147530864197527,0)" xlink:href="#aZ"/><use transform="matrix(0.06234567901234567,0,0,0.06234567901234567,29.80123456790123,0)" xlink:href="#aK"/><use transform="matrix(0.06234567901234567,0,0,0.06234567901234567,42.27037037037036,0)" xlink:href="#bv"/><use transform="matrix(0.06234567901234567,0,0,0.06234567901234567,59.72716049382714,0)" xlink:href="#ar"/><use transform="matrix(0.06234567901234567,0,0,0.06234567901234567,72.19629629629628,0)" xlink:href="#aL"/></g><g id="al"><use transform="matrix(0.06234567901234567,0,0,0.06234567901234567,0,0)" xlink:href="#au"/><use transform="matrix(0.06234567901234567,0,0,0.06234567901234567,12.469135802469133,0)" xlink:href="#aI"/><use transform="matrix(0.06234567901234567,0,0,0.06234567901234567,24.938271604938265,0)" xlink:href="#aN"/><use transform="matrix(0.06234567901234567,0,0,0.06234567901234567,36.16049382716049,0)" xlink:href="#aT"/><use transform="matrix(0.06234567901234567,0,0,0.06234567901234567,52.308024691358014,0)" xlink:href="#aw"/><use transform="matrix(0.06234567901234567,0,0,0.06234567901234567,64.77716049382715,0)" xlink:href="#aH"/><use transform="matrix(0.06234567901234567,0,0,0.06234567901234567,72.19629629629628,0)" xlink:href="#ax"/><use transform="matrix(0.06234567901234567,0,0,0.06234567901234567,78.43086419753085,0)" xlink:href="#ay"/></g><g id="am"><use transform="matrix(0.06234567901234567,0,0,0.06234567901234567,0,0)" xlink:href="#au"/><use transform="matrix(0.06234567901234567,0,0,0.06234567901234567,12.469135802469133,0)" xlink:href="#aI"/><use transform="matrix(0.06234567901234567,0,0,0.06234567901234567,24.938271604938265,0)" xlink:href="#aN"/><use transform="matrix(0.06234567901234567,0,0,0.06234567901234567,36.16049382716049,0)" xlink:href="#aT"/><use transform="matrix(0.06234567901234567,0,0,0.06234567901234567,52.308024691358014,0)" xlink:href="#aw"/><use transform="matrix(0.06234567901234567,0,0,0.06234567901234567,64.77716049382715,0)" xlink:href="#aH"/></g></defs></g></svg>